<svg width="210" height="60" viewBox="0 0 210 60" fill="none" xmlns="http://www.w3.org/2000/svg">
<path d="M4.5 0.5H205.5C207.709 0.5 209.5 2.29086 209.5 4.5V55.5C209.5 57.7091 207.709 59.5 205.5 59.5H4.5C2.29086 59.5 0.5 57.7091 0.5 55.5V4.5C0.5 2.29086 2.29086 0.5 4.5 0.5Z" fill="black" stroke="#8887C8"/>
<path d="M42.4278 28.4324C42.4788 34.2809 47.5053 36.2129 47.5668 36.2354C47.5368 36.3704 46.7808 39.0254 44.8938 41.7194C43.3188 44.0924 41.6688 46.4114 39.0483 46.4519C36.5043 46.5119 35.6478 44.9444 32.7288 44.9444C29.7828 44.9444 28.8708 46.4114 26.4288 46.5119C23.9343 46.6034 22.0263 43.9799 20.3958 41.6294C17.1333 36.8294 14.5938 28.0994 17.9973 22.1624C19.6473 19.2509 22.6563 17.3744 25.8723 17.3234C28.3698 17.2724 30.6873 19.0244 32.2233 19.0244C33.7278 19.0244 36.5958 16.9289 39.5508 17.2424C40.7898 17.2784 44.3073 17.7344 46.5768 21.0689C46.3938 21.1799 42.3843 23.5529 42.4278 28.4324ZM37.6203 14.0834C36.2508 15.7139 34.0593 16.9589 31.9233 16.7999C31.6443 14.6009 32.7258 12.2639 33.9363 10.8374C35.3058 9.21891 37.6818 7.97991 39.5823 7.89441C39.8328 10.1789 38.9343 12.4289 37.6203 14.0834ZM76.9218 46.0574H73.9788L72.3648 40.9529H66.7608L65.2248 46.0574H62.3598L67.9113 28.6769H71.3388L76.9188 46.0574H76.9218ZM71.8803 38.8109L70.4223 34.2719C70.2663 33.8069 69.9783 32.7179 69.5523 30.9974H69.4998C69.2416 32.0926 68.9685 33.1842 68.6808 34.2719L67.2483 38.8109H71.8803ZM91.2018 39.6374C91.2018 41.7689 90.6303 43.4534 89.4873 44.6909C88.4628 45.7904 87.1923 46.3409 85.6728 46.3409C84.0363 46.3409 82.8588 45.7484 82.1418 44.5619H82.0893V51.1634H79.3263V37.6514C79.3263 36.3089 79.2903 34.9364 79.2228 33.5264H81.6528L81.8088 35.5124H81.8613C82.7823 34.0154 84.1803 33.2684 86.0568 33.2684C87.5238 33.2684 88.7493 33.8534 89.7288 35.0204C90.7113 36.1904 91.2018 37.7294 91.2018 39.6374ZM88.3878 39.7394C88.3878 38.5199 88.1148 37.5119 87.5673 36.7244C86.9688 35.8979 86.1678 35.4839 85.1628 35.4839C84.4788 35.4839 83.8623 35.7134 83.3073 36.1679C82.7523 36.6254 82.3893 37.2209 82.2198 37.9604C82.1439 38.2374 82.1006 38.5224 82.0908 38.8094V40.8989C82.0908 41.8109 82.3683 42.5789 82.9233 43.2089C83.4783 43.8359 84.1983 44.1494 85.0863 44.1494C86.1258 44.1494 86.9343 43.7444 87.5148 42.9374C88.0968 42.1289 88.3878 41.0624 88.3878 39.7394ZM105.507 39.6374C105.507 41.7689 104.937 43.4534 103.791 44.6909C102.771 45.7904 101.498 46.3409 99.9813 46.3409C98.3418 46.3409 97.1643 45.7484 96.4488 44.5619H96.3963V51.1634H93.6363V37.6514C93.6363 36.3089 93.6018 34.9364 93.5343 33.5264H95.9613L96.1158 35.5124H96.1683C97.0878 34.0154 98.4873 33.2684 100.365 33.2684C101.832 33.2684 103.055 33.8534 104.037 35.0204C105.017 36.1904 105.507 37.7294 105.507 39.6374ZM102.693 39.7394C102.693 38.5199 102.419 37.5119 101.873 36.7244C101.276 35.8979 100.476 35.4839 99.4683 35.4839C98.7877 35.4841 98.1294 35.7266 97.6113 36.1679C97.0563 36.6254 96.6963 37.2209 96.5253 37.9604C96.4503 38.2379 96.4068 38.5229 96.3963 38.8094V40.8989C96.3963 41.8109 96.6738 42.5789 97.2273 43.2089C97.7823 43.8344 98.5023 44.1494 99.3918 44.1494C100.433 44.1494 101.243 43.7444 101.822 42.9374C102.402 42.1289 102.693 41.0624 102.693 39.7394ZM121.503 41.1839C121.503 42.6614 120.995 43.8644 119.973 44.7929C118.848 45.8084 117.282 46.3154 115.272 46.3154C113.417 46.3154 111.927 45.9554 110.802 45.2324L111.443 42.9104C112.645 43.647 114.029 44.0316 115.439 44.0204C116.478 44.0204 117.288 43.7834 117.87 43.3109C118.451 42.8384 118.739 42.2039 118.739 41.4119C118.739 40.7069 118.5 40.1129 118.023 39.6314C117.546 39.1484 116.753 38.6999 115.643 38.2859C112.622 37.1519 111.113 35.4899 111.113 33.3029C111.113 31.8734 111.642 30.7019 112.701 29.7929C113.757 28.8779 115.164 28.4219 116.924 28.4219C118.494 28.4219 119.798 28.6979 120.839 29.2469L120.149 31.5179C119.177 30.9854 118.079 30.7184 116.847 30.7184C115.875 30.7184 115.116 30.9599 114.57 31.4399C114.111 31.8704 113.88 32.3939 113.88 33.0149C113.88 33.7004 114.143 34.2689 114.672 34.7159C115.131 35.1284 115.968 35.5754 117.182 36.0584C118.665 36.6584 119.756 37.3634 120.456 38.1704C121.155 38.9759 121.505 39.9824 121.505 41.1839H121.503ZM130.641 35.6144H127.595V41.6999C127.595 43.2479 128.132 44.0204 129.209 44.0204C129.702 44.0204 130.11 43.9754 130.436 43.8914L130.511 46.0064C129.966 46.2104 129.251 46.3139 128.363 46.3139C127.271 46.3139 126.419 45.9794 125.804 45.3089C125.189 44.6369 124.88 43.5104 124.88 41.9294V35.6144H123.065V33.5204H124.88V31.2254L127.595 30.4004V33.5204H130.64V35.6144H130.641ZM144.386 39.6884C144.386 41.6144 143.837 43.1969 142.746 44.4329C141.602 45.7064 140.082 46.3409 138.189 46.3409C136.364 46.3409 134.91 45.7304 133.826 44.5109C132.744 43.2914 132.201 41.7509 132.201 39.8954C132.201 37.9529 132.759 36.3629 133.878 35.1254C134.994 33.8879 136.5 33.2684 138.393 33.2684C140.219 33.2684 141.687 33.8789 142.796 35.0999C143.856 36.2849 144.386 37.8149 144.386 39.6884ZM141.518 39.7784C141.518 38.6234 141.273 37.6304 140.777 36.8054C140.196 35.8034 139.37 35.3054 138.296 35.3054C137.183 35.3054 136.34 35.8064 135.761 36.8054C135.266 37.6319 135.02 38.6399 135.02 39.8309C135.02 40.9859 135.266 41.9774 135.762 42.8039C136.358 43.8029 137.195 44.3039 138.27 44.3039C139.325 44.3039 140.154 43.7939 140.751 42.7769C141.261 41.9354 141.518 40.9319 141.518 39.7769V39.7784ZM153.368 35.9729C153.081 35.9213 152.789 35.8962 152.498 35.8979C151.526 35.8979 150.773 36.2669 150.243 37.0079C149.784 37.6589 149.553 38.4854 149.553 39.4829V46.0574H146.79L146.816 37.4714C146.816 36.0269 146.781 34.7114 146.712 33.5264H149.12L149.222 35.9234H149.298C149.559 35.1433 150.038 34.4545 150.678 33.9389C151.256 33.5039 151.956 33.2684 152.676 33.2684C152.931 33.2684 153.162 33.2864 153.366 33.3194V35.9744H153.368V35.9729ZM165.728 39.1979C165.728 39.6974 165.696 40.1174 165.626 40.4624H157.335C157.367 41.6999 157.769 42.6464 158.538 43.2989C159.237 43.8839 160.14 44.1764 161.249 44.1764C162.479 44.1764 163.598 43.9784 164.606 43.5839L165.038 45.5159C163.862 46.0319 162.471 46.2899 160.868 46.2899C158.939 46.2899 157.425 45.7184 156.323 44.5754C155.223 43.4324 154.673 41.8979 154.673 39.9719C154.673 38.0819 155.186 36.5099 156.209 35.2544C157.284 33.9134 158.733 33.2444 160.559 33.2444C162.351 33.2444 163.709 33.9134 164.63 35.2544C165.36 36.3194 165.728 37.6364 165.728 39.1994V39.1979ZM163.092 38.4764C163.11 37.6514 162.93 36.9374 162.555 36.3359C162.078 35.5619 161.343 35.1734 160.352 35.1734C159.45 35.1734 158.715 35.5529 158.154 36.3089C157.694 36.9104 157.419 37.6334 157.335 38.4734H163.092V38.4764ZM68.0763 22.3319C67.4763 22.3319 66.9213 22.2614 66.4113 22.1189C65.9326 21.9916 65.4843 21.7697 65.0928 21.4664C64.7199 21.1704 64.4227 20.7899 64.2258 20.3564C64.0203 19.9124 63.9168 19.3814 63.9168 18.7664H65.1993C65.2083 19.2209 65.2953 19.6064 65.4603 19.9229C65.6253 20.2424 65.8398 20.4959 66.1098 20.6909C66.3768 20.8859 66.6903 21.0254 67.0473 21.1109C67.4043 21.1964 67.7853 21.2384 68.1903 21.2384C68.5368 21.2384 68.8623 21.1889 69.1623 21.0884C69.4473 20.9984 69.7143 20.8529 69.9468 20.6624C70.4043 20.2844 70.6668 19.7174 70.6578 19.1204C70.6578 18.7514 70.5873 18.4514 70.4463 18.2204C70.3116 17.9945 70.1196 17.8082 69.8898 17.6804C69.639 17.5453 69.3663 17.4559 69.0843 17.4164C68.7651 17.3677 68.4426 17.3436 68.1198 17.3444C67.8186 17.3471 67.5175 17.3571 67.2168 17.3744V16.2644C67.3293 16.2839 67.4793 16.2944 67.6668 16.2944H68.1198C68.4393 16.2944 68.7318 16.2614 69.0018 16.1999C69.2673 16.1384 69.4968 16.0379 69.6918 15.8954C69.8871 15.7492 70.042 15.5556 70.1418 15.3329C70.2513 15.1004 70.3053 14.8154 70.3053 14.4734C70.3149 14.2026 70.2544 13.934 70.1298 13.6934C70.0148 13.4872 69.8497 13.3134 69.6498 13.1879C69.4377 13.0559 69.2042 12.9619 68.9598 12.9104C68.6926 12.853 68.42 12.8248 68.1468 12.8264C67.4043 12.8264 66.8208 12.9884 66.3978 13.3154C65.9748 13.6439 65.7258 14.1764 65.6508 14.9144H64.3668C64.3863 14.3744 64.4958 13.9034 64.6998 13.4999C64.9023 13.0979 65.1708 12.7679 65.5098 12.5054C65.8666 12.2364 66.2705 12.0365 66.7008 11.9159C67.1583 11.7839 67.6533 11.7179 68.1903 11.7179C68.6703 11.7179 69.1173 11.7704 69.5373 11.8799C69.9558 11.9909 70.3188 12.1574 70.6293 12.3854C70.9398 12.6119 71.1843 12.8984 71.3643 13.2464C71.5413 13.5914 71.6313 14.0009 71.6313 14.4734C71.6313 14.7494 71.5833 15.0044 71.4903 15.2414C71.3575 15.5779 71.152 15.8809 70.8886 16.1288C70.6251 16.3766 70.3102 16.5633 69.9663 16.6754V16.7204C70.2753 16.7774 70.5708 16.8899 70.8408 17.0519C71.3238 17.3414 71.6853 17.8004 71.8563 18.3389C71.9418 18.6044 71.9838 18.8744 71.9838 19.1489C71.9588 19.9252 71.6379 20.6626 71.0868 21.2099C70.7394 21.5537 70.3282 21.8263 69.8763 22.0124C69.3813 22.2269 68.7813 22.3319 68.0763 22.3319ZM75.8508 22.2614C75.5376 22.2627 75.2253 22.2264 74.9208 22.1534C74.6433 22.089 74.3819 21.9686 74.1528 21.7994C73.9288 21.6319 73.7487 21.4126 73.6278 21.1604C73.4937 20.8639 73.4291 20.5407 73.4388 20.2154C73.4388 19.7984 73.5093 19.4579 73.6503 19.1924C73.7913 18.9269 73.9773 18.7124 74.2068 18.5444C74.4471 18.3746 74.7151 18.2478 74.9988 18.1694C75.2978 18.0826 75.6012 18.0115 75.9078 17.9564C76.2378 17.8889 76.5498 17.8409 76.8468 17.8064C77.1423 17.7734 77.4018 17.7269 77.6268 17.6639C77.8244 17.6171 78.0083 17.5246 78.1638 17.3939C78.2958 17.2739 78.3618 17.1029 78.3618 16.8764C78.3716 16.6532 78.3197 16.4316 78.2118 16.2359C78.1203 16.0819 77.99 15.9546 77.8338 15.8669C77.6705 15.7788 77.4926 15.7208 77.3088 15.6959C77.12 15.668 76.9295 15.654 76.7388 15.6539C76.2318 15.6539 75.8088 15.7499 75.4698 15.9434C75.1323 16.1399 74.9478 16.5059 74.9208 17.0459H73.7208C73.7259 16.6459 73.8223 16.2524 74.0028 15.8954C74.1723 15.5819 74.3988 15.3299 74.6808 15.1334C74.9738 14.935 75.3015 14.7936 75.6468 14.7164C76.0068 14.6309 76.3968 14.5874 76.8108 14.5874C77.1393 14.5874 77.4648 14.6114 77.7903 14.6594C78.1158 14.7059 78.4083 14.8019 78.6723 14.9489C78.9348 15.0989 79.1463 15.3029 79.3068 15.5684C79.4658 15.8339 79.5468 16.1789 79.5468 16.6064V20.3864C79.5468 20.6699 79.5618 20.8784 79.5963 21.0104C79.6263 21.1439 79.7388 21.2099 79.9263 21.2099C80.0514 21.2028 80.1749 21.1791 80.2938 21.1394V22.0769C80.0868 22.1999 79.7988 22.2614 79.4328 22.2614C79.161 22.2749 78.895 22.18 78.6933 21.9974C78.5088 21.8234 78.4173 21.5369 78.4173 21.1394C78.1128 21.5189 77.7168 21.8144 77.2683 21.9974C76.8174 22.1765 76.3359 22.2662 75.8508 22.2614ZM76.1193 21.2099C76.5138 21.2099 76.8528 21.1559 77.1348 21.0449C77.3886 20.9534 77.6228 20.8144 77.8248 20.6354C77.9928 20.4854 78.1278 20.2994 78.2208 20.0939C78.2998 19.9225 78.3427 19.7366 78.3468 19.5479V18.3104C78.1735 18.4434 77.9699 18.531 77.7543 18.5654C77.5098 18.6134 77.2533 18.6554 76.9878 18.6944L76.1748 18.8084C75.9223 18.8409 75.6754 18.9081 75.4413 19.0079C75.2334 19.096 75.0512 19.2353 74.9118 19.4129C74.7768 19.5884 74.7093 19.8269 74.7093 20.1299C74.7093 20.3294 74.7483 20.4959 74.8293 20.6354C74.9059 20.7687 75.0121 20.8826 75.1398 20.9684C75.2748 21.0584 75.4248 21.1184 75.5823 21.1529C75.7518 21.1904 75.9303 21.2099 76.1193 21.2099ZM81.7488 14.7584H86.7423V15.8234H82.9473V22.1054H81.7488V14.7584ZM88.0563 14.7584H89.2563V15.7529H89.2833C89.4813 15.3464 89.7918 15.0509 90.2148 14.8634C90.6378 14.6789 91.1028 14.5874 91.6098 14.5874C92.1753 14.5874 92.6658 14.6924 93.0843 14.9009C93.5043 15.1094 93.8523 15.3899 94.1283 15.7469C94.4073 16.1024 94.6158 16.5119 94.7568 16.9754C94.8978 17.4404 94.9668 17.9324 94.9668 18.4529C94.9668 18.9839 94.9008 19.4789 94.7643 19.9379C94.6377 20.3772 94.4262 20.7875 94.1418 21.1454C93.8598 21.4949 93.5028 21.7754 93.0978 21.9629C92.6403 22.1706 92.1421 22.2731 91.6398 22.2629C91.21 22.2591 90.7845 22.1767 90.3843 22.0199C90.1641 21.9329 89.9572 21.8158 89.7693 21.6719C89.5743 21.5219 89.4093 21.3374 89.2833 21.1244H89.2563V24.9044H88.0563V14.7599V14.7584ZM91.5123 21.2099C91.9173 21.2099 92.2593 21.1289 92.5413 20.9684C92.8233 20.8079 93.0498 20.5934 93.2193 20.3294C93.3888 20.0639 93.5103 19.7594 93.5853 19.4189C93.6603 19.0739 93.6993 18.7214 93.6978 18.3689C93.6978 18.0299 93.6528 17.6939 93.5628 17.3669C93.4806 17.0535 93.3429 16.7573 93.1563 16.4924C92.9625 16.2212 92.7044 16.0025 92.4051 15.8559C92.1058 15.7092 91.7748 15.6393 91.4418 15.6524C91.0368 15.6524 90.6948 15.7334 90.4128 15.8954C90.1371 16.0498 89.9006 16.2653 89.7213 16.5254C89.5379 16.7957 89.4067 17.0979 89.3343 17.4164C89.1693 18.0914 89.1723 18.7949 89.3403 19.4684C89.4243 19.8059 89.5593 20.1014 89.7423 20.3579C89.9268 20.6129 90.1623 20.8184 90.4548 20.9744C90.7458 21.1319 91.0998 21.2099 91.5123 21.2099ZM97.4388 25.0319C97.2978 25.0319 97.1568 25.0229 97.0158 25.0034C96.8761 24.985 96.7389 24.9518 96.6063 24.9044V23.7959L96.9513 23.9099C97.0675 23.9477 97.189 23.9669 97.3113 23.9669C97.5223 23.9777 97.7309 23.9175 97.9038 23.7959C98.0711 23.662 98.2064 23.4923 98.2998 23.2994L98.7933 22.0619L95.9013 14.7569H97.2558L99.3858 20.7689H99.4143L101.459 14.7584H102.728L99.5553 23.0714C99.4143 23.4314 99.2763 23.7344 99.1383 23.9804C99.0183 24.2039 98.8683 24.4079 98.6883 24.5834C98.5309 24.7356 98.3426 24.8522 98.1363 24.9254C97.9114 25 97.6756 25.036 97.4388 25.0319ZM106.736 22.2614C105.768 22.2614 105.011 22.0439 104.466 21.6074C103.92 21.1724 103.625 20.5514 103.577 19.7474H104.79C104.828 20.2874 105.026 20.6744 105.383 20.9114C105.74 21.1484 106.187 21.2669 106.722 21.2669C107.295 21.2669 107.738 21.1439 108.048 20.8979C108.195 20.7896 108.313 20.6479 108.394 20.4846C108.475 20.3213 108.516 20.1411 108.513 19.9589C108.513 19.5899 108.396 19.3004 108.161 19.0919C107.925 18.8834 107.526 18.7799 106.961 18.7799H105.989V17.7989H106.764C107.187 17.7989 107.55 17.7119 107.85 17.5379C108.15 17.3609 108.302 17.0564 108.302 16.6199C108.302 16.3454 108.173 16.1039 107.913 15.8954C107.655 15.6854 107.273 15.5819 106.764 15.5819C106.548 15.5819 106.335 15.6059 106.122 15.6539C105.921 15.6971 105.728 15.7737 105.552 15.8804C105.383 15.9851 105.238 16.126 105.129 16.2929C105.01 16.4817 104.938 16.6961 104.918 16.9184H103.703C103.733 16.4639 103.841 16.0874 104.028 15.7874C104.206 15.5004 104.447 15.2577 104.733 15.0779C105.015 14.9039 105.335 14.7779 105.693 14.7029C106.05 14.6262 106.414 14.5875 106.779 14.5874C107.154 14.5874 107.507 14.6264 107.837 14.7014C108.167 14.7764 108.453 14.8964 108.704 15.0644C108.954 15.2294 109.149 15.4364 109.298 15.6824C109.443 15.9284 109.515 16.2224 109.515 16.5629C109.515 16.9889 109.395 17.3354 109.155 17.6009C108.944 17.8484 108.66 18.0224 108.345 18.0974V18.1274C108.513 18.1544 108.683 18.2114 108.852 18.2969C109.023 18.3826 109.176 18.5002 109.302 18.6434C109.434 18.7934 109.542 18.9704 109.628 19.1834C109.712 19.3994 109.755 19.6469 109.755 19.9304C109.772 20.6414 109.419 21.3104 108.824 21.6929C108.528 21.8884 108.201 22.0324 107.858 22.1189C107.491 22.2142 107.114 22.2621 106.736 22.2614ZM111.506 14.7584H112.706V20.7554L116.147 14.7584H117.684V22.1054H116.484V16.1084L113.043 22.1054H111.507V14.7584H111.506ZM121.566 15.8234H118.956V14.7584H125.373V15.8234H122.763V22.1054H121.566V15.8234ZM129.749 22.2614C129.225 22.2727 128.704 22.1757 128.219 21.9764C127.799 21.7994 127.424 21.5264 127.125 21.1814C126.825 20.8233 126.603 20.4071 126.471 19.9589C126.32 19.457 126.246 18.9351 126.251 18.4109C126.251 17.8604 126.336 17.3519 126.506 16.8839C126.674 16.4129 126.912 16.0094 127.218 15.6689C127.526 15.3224 127.906 15.0465 128.33 14.8601C128.755 14.6737 129.215 14.5812 129.678 14.5889C130.328 14.5889 130.865 14.7224 131.292 14.9924C131.721 15.2624 132.063 15.6074 132.323 16.0229C132.582 16.4399 132.761 16.8944 132.86 17.3879C132.959 17.8799 132.998 18.3479 132.98 18.7934H127.52C127.511 19.1159 127.55 19.4204 127.634 19.7099C127.713 19.9969 127.856 20.2626 128.051 20.4876C128.246 20.7125 128.489 20.8912 128.762 21.0104C129.053 21.1439 129.396 21.2099 129.791 21.2099C130.299 21.2099 130.716 21.0914 131.039 20.8544C131.364 20.6174 131.579 20.2574 131.681 19.7744H132.866C132.707 20.6084 132.353 21.2294 131.808 21.6434C131.262 22.0544 130.577 22.2614 129.749 22.2614ZM131.709 17.7284C131.692 17.4497 131.628 17.1759 131.52 16.9184C131.365 16.5405 131.099 16.218 130.758 15.9926C130.417 15.7672 130.016 15.6492 129.608 15.6539C129.297 15.6539 129.018 15.7079 128.769 15.8189C128.528 15.9209 128.309 16.0739 128.127 16.2644C127.947 16.4534 127.808 16.6754 127.704 16.9244C127.599 17.1794 127.538 17.4524 127.521 17.7284H131.709ZM138.767 14.7584H142.139C142.458 14.7584 142.766 14.7824 143.063 14.8289C143.36 14.8769 143.624 14.9639 143.858 15.0929C144.093 15.2192 144.289 15.4082 144.423 15.6389C144.564 15.8759 144.633 16.1789 144.633 16.5494C144.633 16.9469 144.54 17.2694 144.353 17.5154C144.164 17.7614 143.901 17.9654 143.562 18.1259V18.1409C143.985 18.2264 144.321 18.4259 144.572 18.7379C144.821 19.0499 144.945 19.4519 144.945 19.9454C144.945 20.2574 144.891 20.5454 144.782 20.8124C144.679 21.0692 144.523 21.3013 144.324 21.4934C144.12 21.6872 143.881 21.84 143.619 21.9434C143.336 22.0531 143.035 22.1081 142.731 22.1054H138.767V14.7584ZM142.505 21.0824C142.899 21.0824 143.198 20.9669 143.402 20.7344C143.607 20.4905 143.715 20.1787 143.703 19.8599C143.71 19.7119 143.684 19.5643 143.628 19.4271C143.572 19.2899 143.487 19.1663 143.379 19.0649C143.163 18.8654 142.802 18.7649 142.293 18.7649H139.953V21.0824H142.505ZM142.011 17.7704C142.529 17.7704 142.889 17.6759 143.09 17.4854C143.191 17.3889 143.27 17.2719 143.322 17.1423C143.375 17.0128 143.399 16.8735 143.393 16.7339C143.401 16.6016 143.378 16.4693 143.327 16.3472C143.276 16.225 143.197 16.1161 143.097 16.0289C142.899 15.8639 142.538 15.7814 142.011 15.7814H139.952V17.7704H142.011Z" fill="white"/>
</svg>
