<svg width="210" height="60" viewBox="0 0 210 60" fill="none" xmlns="http://www.w3.org/2000/svg">
<path d="M4.5 0.5H205.5C207.709 0.5 209.5 2.29086 209.5 4.5V55.5C209.5 57.7091 207.709 59.5 205.5 59.5H4.5C2.29086 59.5 0.5 57.7091 0.5 55.5V4.5C0.5 2.29086 2.29086 0.5 4.5 0.5Z" fill="black" stroke="#8887C8"/>
<path d="M101.332 33.9074C97.8728 33.9239 95.0813 36.7589 95.0918 40.2434C95.1038 43.7279 97.9118 46.5434 101.371 46.5389C104.828 46.5344 107.629 43.7084 107.629 40.2239C107.641 39.3899 107.487 38.5619 107.174 37.7885C106.862 37.0152 106.398 36.3122 105.809 35.7209C105.224 35.1324 104.525 34.6683 103.756 34.3566C102.986 34.045 102.162 33.8922 101.332 33.9074ZM101.332 44.0594C100.568 44.1119 99.8066 43.9326 99.1466 43.5451C98.4866 43.1575 97.959 42.5798 97.6328 41.8874C97.3037 41.1932 97.1896 40.4164 97.305 39.6569C97.4205 38.8973 97.7603 38.1895 98.2808 37.6244C98.7981 37.0617 99.4736 36.6688 100.218 36.4975C100.963 36.3261 101.743 36.3843 102.454 36.6644C103.167 36.9476 103.778 37.4382 104.21 38.0728C104.641 38.7074 104.871 39.4568 104.872 40.2239C104.92 41.2079 104.572 42.1709 103.904 42.8939C103.576 43.2509 103.179 43.5381 102.737 43.7383C102.295 43.9385 101.817 44.0477 101.332 44.0594ZM87.5993 33.9074C84.1388 33.9164 81.3398 36.7484 81.3458 40.2344C81.3518 43.7204 84.1598 46.5419 87.6203 46.5389C91.0793 46.5359 93.8828 43.7099 93.8828 40.2239C93.8952 39.3896 93.7405 38.5612 93.4278 37.7875C93.115 37.0139 92.6506 36.3107 92.0618 35.7194C91.476 35.1309 90.7772 34.667 90.0075 34.3556C89.2378 34.0442 88.413 33.8918 87.5828 33.9074H87.5978H87.5993ZM87.5993 44.0594C86.8354 44.1146 86.0727 43.9378 85.411 43.5521C84.7494 43.1664 84.2197 42.5898 83.8913 41.8979C83.5599 41.2041 83.4435 40.4271 83.5571 39.6666C83.6707 38.9062 84.0091 38.1971 84.5288 37.6304C85.0455 37.0664 85.721 36.6722 86.4662 36.4997C87.2114 36.3273 87.9914 36.3847 88.7033 36.6644C89.4169 36.9471 90.0291 37.4375 90.4608 38.0722C90.8924 38.7068 91.1236 39.4564 91.1243 40.2239C91.1738 41.2094 90.8243 42.1724 90.1568 42.8939C89.828 43.2511 89.4306 43.5383 88.9884 43.7386C88.5461 43.9388 88.0681 44.0479 87.5828 44.0594H87.5978H87.5993ZM71.2418 35.8544V38.5289H77.6138C77.5152 39.7876 76.9958 40.9764 76.1393 41.9039C75.504 42.5569 74.7385 43.0689 73.8924 43.4067C73.0463 43.7445 72.1386 43.9004 71.2283 43.8644C67.3583 43.8059 64.2533 40.6304 64.2533 36.7319C64.2533 32.8319 67.3583 29.6564 71.2283 29.5994C72.1184 29.5854 73.0026 29.7474 73.8299 30.0761C74.6573 30.4049 75.4115 30.8938 76.0493 31.5149L77.9243 29.6279C77.0548 28.7388 76.0147 28.0344 74.8665 27.5568C73.7182 27.0792 72.4854 26.8383 71.2418 26.8484C69.486 26.7836 67.7453 27.1953 66.2046 28.0399C64.6639 28.8844 63.3806 30.1304 62.4908 31.6454C61.5947 33.1662 61.1221 34.8992 61.1221 36.6644C61.1221 38.4296 61.5947 40.1626 62.4908 41.6834C63.3808 43.1982 64.6642 44.4438 66.2049 45.2881C67.7456 46.1324 69.4861 46.5439 71.2418 46.4789C72.5061 46.5356 73.7678 46.3193 74.9411 45.8449C76.1143 45.3704 77.1717 44.6489 78.0413 43.7294C79.5882 42.0144 80.4125 39.768 80.3423 37.4594C80.3469 36.896 80.2972 36.3333 80.1938 35.7794L71.2418 35.8544ZM138.07 37.9364C137.689 36.7993 136.972 35.805 136.013 35.0855C135.053 34.3661 133.898 33.9557 132.7 33.9089C131.892 33.9082 131.093 34.0739 130.352 34.3957C129.611 34.7175 128.944 35.1885 128.393 35.7794C127.839 36.3732 127.412 37.0737 127.138 37.8382C126.865 38.6027 126.749 39.415 126.8 40.2254C126.782 41.055 126.93 41.8799 127.236 42.6513C127.542 43.4226 127.999 44.1249 128.581 44.7164C129.16 45.305 129.852 45.77 130.616 46.0835C131.38 46.397 132.2 46.5524 133.025 46.5404C134.059 46.5449 135.078 46.2918 135.99 45.8039C136.901 45.316 137.677 44.6087 138.247 43.7459L136.108 42.2609C135.79 42.7955 135.339 43.2383 134.799 43.5455C134.258 43.8527 133.647 44.0138 133.025 44.0129C132.385 44.0364 131.752 43.866 131.21 43.524C130.667 43.1819 130.241 42.6842 129.986 42.0959L138.379 38.6039L138.07 37.9364ZM129.514 40.0454C129.484 39.5864 129.546 39.1259 129.695 38.6908C129.844 38.2557 130.078 37.8545 130.384 37.5104C130.999 36.8159 131.866 36.4004 132.788 36.3599C133.265 36.3295 133.741 36.4402 134.155 36.6781C134.57 36.916 134.905 37.2707 135.119 37.6979L129.515 40.0454H129.514ZM122.701 46.1684H125.461V27.5924H122.701V46.1684ZM118.189 35.3204H118.084C117.67 34.8529 117.161 34.4787 116.592 34.2224C116.023 33.9662 115.405 33.8337 114.781 33.8339C111.436 34.0019 108.811 36.7829 108.811 40.1579C108.811 43.5314 111.436 46.3124 114.781 46.4804C115.407 46.4903 116.028 46.3622 116.599 46.1053C117.17 45.8484 117.677 45.469 118.085 44.9939H118.172V45.9014C118.172 48.3239 116.89 49.6169 114.826 49.6169C114.136 49.5991 113.467 49.3758 112.905 48.9758C112.343 48.5758 111.913 48.0172 111.67 47.3714L109.265 48.3824C109.713 49.4886 110.483 50.4352 111.474 51.1001C112.465 51.765 113.632 52.1178 114.826 52.1129C118.055 52.1129 120.724 50.1959 120.724 45.5279V34.2809H118.189V35.3204ZM115.033 44.0594C114.078 43.971 113.191 43.5283 112.546 42.8184C111.901 42.1085 111.545 41.183 111.548 40.2239C111.545 39.265 111.901 38.3397 112.546 37.63C113.191 36.9204 114.078 36.478 115.033 36.3899C115.985 36.4394 116.878 36.8744 117.508 37.5959C118.138 38.3174 118.453 39.2654 118.379 40.2239C118.42 40.7001 118.364 41.1796 118.215 41.6337C118.066 42.0879 117.827 42.5073 117.512 42.8669C117.199 43.2249 116.816 43.5152 116.387 43.7203C115.958 43.9253 115.492 44.0407 115.016 44.0594H115.031H115.033ZM150.988 27.5924H144.395V46.1684H147.155V39.1244H151.004C152.057 39.1975 153.109 38.9784 154.044 38.4914C154.98 38.0043 155.763 37.2683 156.307 36.3644C156.854 35.4573 157.143 34.4179 157.143 33.3584C157.143 32.2989 156.854 31.2596 156.307 30.3524C155.763 29.4486 154.98 28.7125 154.044 28.2255C153.109 27.7384 152.057 27.5194 151.004 27.5924H150.989H150.988ZM150.988 36.5084H147.14V30.1784H151.048C152.795 30.1784 154.213 31.6049 154.213 33.3659C154.214 33.7831 154.134 34.1964 153.976 34.5824C153.817 34.9684 153.585 35.3194 153.291 35.6154C152.997 35.9114 152.647 36.1466 152.263 36.3076C151.878 36.4685 151.465 36.5521 151.048 36.5534L150.988 36.5084ZM167.995 33.8339C166.988 33.775 165.987 34.0124 165.114 34.5169C164.241 35.0213 163.535 35.7705 163.084 36.6719L165.532 37.6994C165.771 37.2523 166.136 36.8846 166.581 36.6414C167.026 36.3982 167.533 36.2899 168.038 36.3299C168.389 36.2886 168.744 36.318 169.083 36.4164C169.422 36.5148 169.738 36.6803 170.012 36.9029C170.567 37.3529 170.92 38.0099 170.989 38.7239V38.9159C170.104 38.4432 169.115 38.1978 168.112 38.2019C165.472 38.2019 162.802 39.6869 162.802 42.3794C162.856 43.5374 163.372 44.6249 164.233 45.3944C164.658 45.7749 165.155 46.0659 165.695 46.2499C166.235 46.4339 166.806 46.5072 167.375 46.4654C168.071 46.5148 168.768 46.3749 169.391 46.0607C170.014 45.7464 170.541 45.2695 170.915 44.6804H171.004V46.1684H173.659V39.0209C173.659 35.7659 171.211 33.8774 168.068 33.8774L167.993 33.8324L167.995 33.8339ZM167.656 44.0129C166.756 44.0129 165.503 43.5539 165.503 42.4379C165.503 40.9529 167.065 40.4624 168.452 40.4624C169.329 40.4409 170.195 40.6565 170.959 41.0864C170.87 41.8882 170.494 42.6307 169.9 43.1771C169.307 43.7235 168.536 44.0369 167.729 44.0594L167.656 44.0144V44.0129ZM183.334 34.2809L180.176 42.3329H180.089L176.815 34.2809H173.864L178.777 45.5459L175.975 51.8009H178.85L186.401 34.2809H183.334ZM158.542 46.1684H161.3V27.5924H158.542V46.1684Z" fill="white"/>
<path d="M16.2821 13.179C15.8321 13.7265 15.6177 14.43 15.6822 15.138V44.8605C15.6404 45.5479 15.8643 46.225 16.3076 46.752L16.4022 46.848L33.2022 30.2025V29.811L16.3737 13.086L16.2807 13.179H16.2821Z" fill="#5BC9F4"/>
<path d="M38.7903 35.7691L33.1758 30.1891V29.7991L38.7903 24.2311L38.9118 24.2986L45.5853 28.0546C47.4903 29.1226 47.4903 30.8776 45.5853 31.9591L38.9403 35.7136L38.7903 35.7691Z" fill="url(#paint0_linear)"/>
<path d="M38.9393 35.7L33.2003 30L16.2803 46.821C16.6692 47.1595 17.1636 47.3525 17.679 47.367C18.1944 47.3815 18.6989 47.2166 19.1063 46.9005L38.9513 35.7015" fill="url(#paint1_linear)"/>
<path d="M38.9396 24.3L19.0946 13.098C18.6871 12.7816 18.1823 12.6164 17.6666 12.6309C17.1508 12.6454 16.6561 12.8387 16.2671 13.1775L33.2021 30L38.9381 24.3H38.9396Z" fill="url(#paint2_linear)"/>
<path d="M62.8096 19.3891H63.7966C63.9856 19.0486 64.1596 18.6226 64.3186 18.1111C64.4791 17.5996 64.6171 17.0371 64.7356 16.4266C64.9846 15.0976 65.1106 13.7491 65.1106 12.3976L65.1091 10.3801H71.5966V19.3891H72.7111V23.0416H71.4271V20.5261H64.0921V23.0416H62.8096V19.3891ZM70.2571 19.3891V11.5171H66.4051V12.9811C66.4058 14.7482 66.1667 16.5073 65.6941 18.2101C65.5831 18.6151 65.4391 19.0096 65.2621 19.3891H70.2556H70.2571ZM77.3266 20.6821C76.8014 20.6939 76.2797 20.5953 75.7951 20.3926C75.3707 20.2077 74.9927 19.9311 74.6881 19.5826C74.3823 19.2278 74.1521 18.8143 74.0116 18.3676C73.8577 17.88 73.7818 17.3713 73.7866 16.8601C73.7866 16.3201 73.8616 15.8161 74.0116 15.3451C74.1515 14.8962 74.3817 14.4807 74.6881 14.1241C74.9881 13.7791 75.3571 13.5061 75.7951 13.3081C76.2777 13.0997 76.7995 12.9974 77.3251 13.0081C77.8996 13.0081 78.4066 13.1086 78.8491 13.3081C79.2916 13.5061 79.6621 13.7776 79.9636 14.1241C80.2636 14.4706 80.4886 14.8771 80.6401 15.3466C80.7901 15.8161 80.8651 16.3201 80.8651 16.8601C80.8651 17.4001 80.7901 17.9026 80.6401 18.3661C80.4901 18.8311 80.2651 19.2361 79.9636 19.5811C79.6636 19.9276 79.2916 20.1976 78.8491 20.3911C78.3675 20.5933 77.8488 20.6925 77.3266 20.6821ZM77.3266 19.6321C77.6356 19.6321 77.9296 19.5691 78.2086 19.4461C78.4861 19.3231 78.7261 19.1461 78.9331 18.9121C79.1401 18.6811 79.3021 18.3916 79.4191 18.0481C79.5436 17.6646 79.6034 17.2631 79.5961 16.8601C79.5961 16.4146 79.5391 16.0201 79.4206 15.6721C79.3169 15.3519 79.1513 15.0553 78.9331 14.7991C78.7342 14.568 78.4868 14.3836 78.2086 14.2591C77.9309 14.1359 77.6303 14.073 77.3266 14.0746C77.0223 14.0728 76.7212 14.1357 76.4431 14.2591C76.1656 14.3836 75.9181 14.5681 75.7186 14.7991C75.5005 15.0557 75.3353 15.3529 75.2326 15.6736C75.1079 16.0564 75.0481 16.4575 75.0556 16.8601C75.0556 17.3056 75.1126 17.7001 75.2311 18.0481C75.3511 18.3931 75.5116 18.6811 75.7186 18.9136C76.1296 19.3726 76.7131 19.6336 77.3266 19.6306V19.6321ZM85.6066 20.6821C85.1029 20.6914 84.6026 20.5996 84.1351 20.4121C83.7227 20.2436 83.3555 19.9811 83.0626 19.6456C82.7682 19.3008 82.5472 18.8996 82.4131 18.4666C82.2616 17.974 82.1877 17.4609 82.1941 16.9456C82.1941 16.3966 82.2646 15.8821 82.4056 15.4036C82.5481 14.9236 82.7611 14.5096 83.0491 14.1526C83.3356 13.7971 83.6911 13.5196 84.1186 13.3156C84.5491 13.1101 85.0531 13.0096 85.6366 13.0096C86.0491 13.0096 86.4376 13.0576 86.7991 13.1596C87.1621 13.2586 87.4801 13.4116 87.7591 13.6201C88.0366 13.8286 88.2646 14.0911 88.4431 14.4091C88.6216 14.7241 88.7341 15.1021 88.7806 15.5386H87.5401C87.4456 15.0736 87.2491 14.7136 86.9476 14.4586C86.6476 14.2036 86.2426 14.0746 85.7341 14.0746C85.3021 14.0746 84.9391 14.1556 84.6481 14.3161C84.3663 14.4687 84.1266 14.6888 83.9506 14.9566C83.7781 15.2206 83.6521 15.5266 83.5756 15.8716C83.5006 16.2241 83.4631 16.5841 83.4646 16.9456C83.4646 17.2861 83.5036 17.6176 83.5846 17.9401C83.6641 18.2626 83.7886 18.5476 83.9581 18.7996C84.1276 19.0516 84.3451 19.2526 84.6136 19.4041C84.8806 19.5541 85.2076 19.6306 85.5931 19.6306C86.1856 19.6306 86.6491 19.4746 86.9836 19.1626C87.3181 18.8491 87.5206 18.4096 87.5971 17.8411H88.8241C88.6921 18.7591 88.3591 19.4611 87.8221 19.9516C87.2866 20.4391 86.5471 20.6821 85.6081 20.6821H85.6066ZM92.2396 14.2456H89.6296V13.1806H96.0481V14.2456H93.4381V20.5261H92.2396V14.2456ZM98.0671 23.4541C97.9261 23.4541 97.7851 23.4436 97.6441 23.4241C97.505 23.4061 97.3682 23.3734 97.2361 23.3266V22.2166L97.5811 22.3306C97.6973 22.3683 97.8188 22.3876 97.9411 22.3876C98.1518 22.3977 98.3601 22.3381 98.5336 22.2181C98.7005 22.0835 98.8353 21.9134 98.9281 21.7201L99.4216 20.4841L96.5311 13.1791H97.8841L100.014 19.1911H100.043L102.087 13.1791H103.356L100.184 21.4921C100.043 21.8521 99.9046 22.1566 99.7666 22.4026C99.6469 22.6249 99.4948 22.8282 99.3151 23.0056C99.1584 23.1568 98.9712 23.2729 98.7661 23.3461C98.5409 23.4213 98.3045 23.4578 98.0671 23.4541ZM104.685 13.1791H110.637V20.5261H109.437V14.2456H105.885V20.5261H104.687V13.1791H104.685ZM112.755 13.1791H113.955V16.1071H117.65V13.1791H118.85V20.5261H117.65V17.1451H113.955V20.5276H112.755V13.1791ZM124.113 20.6821C123.588 20.6939 123.066 20.5953 122.582 20.3926C122.157 20.2077 121.779 19.9311 121.475 19.5826C121.169 19.2278 120.939 18.8143 120.798 18.3676C120.644 17.88 120.568 17.3713 120.573 16.8601C120.573 16.3201 120.648 15.8161 120.798 15.3451C120.938 14.8962 121.168 14.4807 121.475 14.1241C121.775 13.7791 122.144 13.5061 122.583 13.3081C123.066 13.0993 123.587 12.997 124.113 13.0081C124.686 13.0081 125.193 13.1086 125.636 13.3081C126.078 13.5061 126.449 13.7776 126.75 14.1241C127.05 14.4706 127.275 14.8771 127.427 15.3466C127.577 15.8161 127.652 16.3201 127.652 16.8601C127.652 17.4001 127.577 17.9026 127.427 18.3661C127.277 18.8311 127.052 19.2361 126.75 19.5811C126.45 19.9276 126.078 20.1976 125.636 20.3911C125.154 20.5933 124.635 20.6925 124.113 20.6821ZM124.113 19.6321C124.422 19.6321 124.716 19.5691 124.995 19.4461C125.273 19.3231 125.514 19.1461 125.72 18.9121C125.927 18.6811 126.089 18.3916 126.206 18.0481C126.33 17.6646 126.39 17.2631 126.383 16.8601C126.383 16.4146 126.326 16.0201 126.207 15.6721C126.103 15.3519 125.938 15.0553 125.72 14.7991C125.521 14.568 125.273 14.3836 124.995 14.2591C124.717 14.1359 124.417 14.073 124.113 14.0746C123.809 14.0728 123.508 14.1357 123.23 14.2591C122.952 14.3836 122.705 14.5681 122.505 14.7991C122.287 15.0557 122.122 15.3529 122.019 15.6736C121.894 16.0564 121.835 16.4575 121.842 16.8601C121.842 17.3056 121.899 17.7001 122.018 18.0481C122.138 18.3931 122.298 18.6811 122.505 18.9136C122.706 19.1417 122.953 19.3239 123.231 19.4476C123.508 19.5714 123.809 19.6338 124.113 19.6306V19.6321ZM133.611 13.1791H136.982C137.301 13.1791 137.609 13.2031 137.906 13.2511C138.203 13.2976 138.467 13.3861 138.701 13.5136C138.936 13.6403 139.132 13.8298 139.266 14.0611C139.407 14.2981 139.478 14.6011 139.478 14.9701C139.478 15.3676 139.383 15.6901 139.196 15.9361C139.008 16.1821 138.746 16.3861 138.405 16.5481V16.5631C138.83 16.6471 139.164 16.8466 139.415 17.1586C139.664 17.4706 139.788 17.8741 139.788 18.3661C139.788 18.6796 139.734 18.9676 139.626 19.2331C139.523 19.4905 139.367 19.7232 139.167 19.9156C138.963 20.1088 138.724 20.2611 138.462 20.3641C138.179 20.4745 137.878 20.5295 137.574 20.5261H133.611V13.1791ZM137.348 19.5031C137.744 19.5031 138.041 19.3876 138.245 19.1566C138.451 18.9123 138.558 18.5999 138.546 18.2806C138.552 18.1326 138.527 17.9849 138.471 17.8477C138.415 17.7105 138.33 17.587 138.222 17.4856C138.006 17.2861 137.645 17.1856 137.136 17.1856H134.796V19.5031H137.348ZM136.854 16.1926C137.372 16.1926 137.732 16.0981 137.933 15.9076C138.034 15.811 138.114 15.6939 138.166 15.564C138.219 15.4341 138.243 15.2945 138.237 15.1546C138.245 15.0222 138.222 14.8898 138.17 14.7676C138.119 14.6454 138.04 14.5366 137.94 14.4496C137.744 14.2846 137.381 14.2021 136.854 14.2021H134.795V16.1926H136.854Z" fill="white"/>
<defs>
<linearGradient id="paint0_linear" x1="44.3498" y1="30.0001" x2="11.4805" y2="30.0001" gradientUnits="userSpaceOnUse">
<stop stop-color="#FEE000"/>
<stop offset="0.42" stop-color="#FBBC0E"/>
<stop offset="0.78" stop-color="#FAA418"/>
<stop offset="1" stop-color="#F99B1C"/>
</linearGradient>
<linearGradient id="paint1_linear" x1="32.3533" y1="33.0937" x2="21.1034" y2="66.0696" gradientUnits="userSpaceOnUse">
<stop stop-color="#EF4547"/>
<stop offset="1" stop-color="#C6186D"/>
</linearGradient>
<linearGradient id="paint2_linear" x1="14.3993" y1="-3.95409" x2="23.5959" y2="22.9673" gradientUnits="userSpaceOnUse">
<stop stop-color="#279E6F"/>
<stop offset="0.04" stop-color="#2BA06F"/>
<stop offset="0.46" stop-color="#53B26C"/>
<stop offset="0.8" stop-color="#6BBD6A"/>
<stop offset="1" stop-color="#74C169"/>
</linearGradient>
</defs>
</svg>
