<svg width="27" height="27" viewBox="0 0 27 27" fill="none" xmlns="http://www.w3.org/2000/svg">
<path d="M8.54132 18.0978V10.7675H6.84676V8.88901H10.8796V18.0978H8.54132Z" fill="#FC1919"/>
<path d="M19.6675 11.267C19.6675 12.0683 19.234 12.7776 18.5115 13.1718C19.5229 13.5921 20.1536 14.4723 20.1536 15.4969C20.1536 17.152 18.6822 18.203 16.3834 18.203C14.0845 18.203 12.6132 17.1652 12.6132 15.5364C12.6132 14.4854 13.2963 13.5921 14.3604 13.1718C13.5853 12.7382 13.0861 12.0027 13.0861 11.2014C13.0861 9.72997 14.3736 8.79738 16.3703 8.79738C18.3932 8.79738 19.6675 9.75632 19.6675 11.267ZM14.8201 15.2999C14.8201 16.075 15.3719 16.5085 16.3834 16.5085C17.3949 16.5085 17.9597 16.0883 17.9597 15.2999C17.9597 14.5381 17.3949 14.1045 16.3834 14.1045C15.3718 14.1045 14.8201 14.538 14.8201 15.2999ZM15.0567 11.3983C15.0567 12.0553 15.5295 12.423 16.3834 12.423C17.2372 12.423 17.7102 12.0552 17.7102 11.3983C17.7102 10.7154 17.2372 10.3344 16.3834 10.3344C15.5295 10.3344 15.0567 10.7154 15.0567 11.3983Z" fill="#FC1919"/>
<path fill-rule="evenodd" clip-rule="evenodd" d="M13.5 0.964286C6.57672 0.964286 0.964286 6.57672 0.964286 13.5C0.964286 20.4233 6.57672 26.0357 13.5 26.0357C20.4233 26.0357 26.0357 20.4233 26.0357 13.5C26.0357 12.3752 25.8877 11.2858 25.6103 10.2497L26.5418 10.0003C26.8408 11.117 27 12.2903 27 13.5C27 20.9558 20.9558 27 13.5 27C6.04416 27 0 20.9558 0 13.5C0 6.04416 6.04416 0 13.5 0C14.7097 0 15.883 0.159238 16.9997 0.458162L16.7503 1.38965C15.7142 1.1123 14.6248 0.964286 13.5 0.964286Z" fill="#FC1919"/>
<path d="M23.3705 3.62149V1.03293H21.5091V3.62149H18.9361V5.48272H21.5091V8.0712H23.3705V5.48272H25.9589V3.62149H23.3705Z" fill="#FC1919"/>
</svg>
