<svg width="162" height="34" viewBox="0 0 162 34" fill="none" xmlns="http://www.w3.org/2000/svg">
<path d="M8.97452 27C8.8111 26.6992 8.66584 26.2572 8.53873 25.6738C7.69439 26.7402 6.51413 27.2734 4.99795 27.2734C3.60887 27.2734 2.42861 26.8542 1.45717 26.0156C0.485723 25.168 0 24.1061 0 22.8301C0 21.2259 0.59013 20.0137 1.77039 19.1934C2.95065 18.373 4.66657 17.9629 6.91814 17.9629H8.33446V17.1836C8.33446 15.8255 7.74887 15.1465 6.57768 15.1465C5.48821 15.1465 4.94348 15.6842 4.94348 16.7598H0.354078C0.354078 15.3288 0.957827 14.1667 2.16532 13.2734C3.3819 12.3802 4.92986 11.9336 6.8092 11.9336C8.68853 11.9336 10.1729 12.3939 11.2624 13.3145C12.3519 14.235 12.9102 15.4974 12.9375 17.1016V23.6504C12.9556 25.0085 13.1644 26.0475 13.5639 26.7676V27H8.97452ZM6.10104 23.9922C6.67301 23.9922 7.14512 23.8691 7.51735 23.623C7.89867 23.377 8.17103 23.099 8.33446 22.7891V20.4238H6.99985C5.40196 20.4238 4.60302 21.1439 4.60302 22.584C4.60302 23.0033 4.74374 23.3451 5.02519 23.6094C5.30663 23.8646 5.66525 23.9922 6.10104 23.9922Z" fill="white"/>
<path d="M19.8284 12.207L19.9782 13.9434C21.0223 12.6035 22.425 11.9336 24.1863 11.9336C26.0474 11.9336 27.3049 12.6764 27.9586 14.1621C28.9572 12.6764 30.4008 11.9336 32.2892 11.9336C35.2762 11.9336 36.8105 13.7474 36.8922 17.375V27H32.2892V17.6621C32.2892 16.9056 32.1621 16.3542 31.9079 16.0078C31.6537 15.6615 31.1907 15.4883 30.5188 15.4883C29.6109 15.4883 28.9345 15.8939 28.4897 16.7051L28.5033 16.8965V27H23.9003V17.6895C23.9003 16.9147 23.7777 16.3542 23.5326 16.0078C23.2875 15.6615 22.8199 15.4883 22.1299 15.4883C21.2492 15.4883 20.5774 15.8939 20.1144 16.7051V27H15.525V12.207H19.8284Z" fill="white"/>
<path d="M47.8142 27C47.6508 26.6992 47.5055 26.2572 47.3784 25.6738C46.534 26.7402 45.3538 27.2734 43.8376 27.2734C42.4485 27.2734 41.2683 26.8542 40.2968 26.0156C39.3254 25.168 38.8397 24.1061 38.8397 22.8301C38.8397 21.2259 39.4298 20.0137 40.61 19.1934C41.7903 18.373 43.5062 17.9629 45.7578 17.9629H47.1741V17.1836C47.1741 15.8255 46.5885 15.1465 45.4173 15.1465C44.3279 15.1465 43.7831 15.6842 43.7831 16.7598H39.1937C39.1937 15.3288 39.7975 14.1667 41.005 13.2734C42.2216 12.3802 43.7695 11.9336 45.6488 11.9336C47.5282 11.9336 49.0126 12.3939 50.1021 13.3145C51.1915 14.235 51.7499 15.4974 51.7771 17.1016V23.6504C51.7953 25.0085 52.0041 26.0475 52.4036 26.7676V27H47.8142ZM44.9407 23.9922C45.5127 23.9922 45.9848 23.8691 46.357 23.623C46.7383 23.377 47.0107 23.099 47.1741 22.7891V20.4238H45.8395C44.2416 20.4238 43.4427 21.1439 43.4427 22.584C43.4427 23.0033 43.5834 23.3451 43.8648 23.6094C44.1463 23.8646 44.5049 23.9922 44.9407 23.9922Z" fill="white"/>
<path d="M58.5455 12.207L58.6953 13.9434C59.7121 12.6035 61.1148 11.9336 62.9034 11.9336C64.4377 11.9336 65.5816 12.3939 66.3352 13.3145C67.0978 14.235 67.4928 15.6204 67.52 17.4707V27H62.917V17.6621C62.917 16.9147 62.7672 16.3678 62.4676 16.0215C62.168 15.666 61.6232 15.4883 60.8334 15.4883C59.9345 15.4883 59.2672 15.8438 58.8315 16.5547V27H54.2421V12.207H58.5455Z" fill="white"/>
<path d="M75.4187 8.5293V12.207H77.8427V15.4062H75.4187V22.1738C75.4187 22.7298 75.5185 23.1172 75.7183 23.3359C75.918 23.5547 76.3129 23.6641 76.9031 23.6641C77.357 23.6641 77.7383 23.6367 78.047 23.582V26.877C77.2208 27.1413 76.3583 27.2734 75.4595 27.2734C73.8798 27.2734 72.7131 26.8997 71.9596 26.1523C71.206 25.4049 70.8293 24.2702 70.8293 22.748V15.4062H68.9499V12.207H70.8293V8.5293H75.4187Z" fill="white"/>
<path d="M86.79 27.2734C84.5294 27.2734 82.7 26.599 81.3018 25.25C79.9036 23.8919 79.2046 22.1283 79.2046 19.959V19.5762C79.2046 18.0632 79.4815 16.7279 80.0353 15.5703C80.5982 14.4128 81.4153 13.5195 82.4866 12.8906C83.5579 12.2526 84.829 11.9336 86.2998 11.9336C88.3697 11.9336 90.004 12.5807 91.2024 13.875C92.4008 15.1602 93 16.9557 93 19.2617V21.0527H83.8757C84.0391 21.8822 84.3977 22.5339 84.9515 23.0078C85.5053 23.4818 86.2226 23.7188 87.1032 23.7188C88.5559 23.7188 89.6907 23.2083 90.5078 22.1875L92.6051 24.6758C92.0331 25.4688 91.2205 26.1022 90.1674 26.5762C89.1233 27.041 87.9975 27.2734 86.79 27.2734ZM86.2725 15.4883C84.9288 15.4883 84.1299 16.3815 83.8757 18.168H88.5059V17.8125C88.5241 17.0742 88.338 16.5046 87.9476 16.1035C87.5572 15.6934 86.9988 15.4883 86.2725 15.4883Z" fill="white"/>
<path d="M162 0H110.917C105.44 0 101 4.47715 101 10V34H152.083C157.56 34 162 29.5228 162 24V0Z" fill="#FC1919"/>
<path d="M113.582 13.793C114.561 12.5534 115.812 11.9336 117.335 11.9336C118.957 11.9336 120.181 12.4167 121.006 13.3828C121.831 14.349 122.252 15.7754 122.27 17.6621V27H117.675V17.7715C117.675 16.9876 117.516 16.4134 117.199 16.0488C116.882 15.6751 116.342 15.4883 115.581 15.4883C114.638 15.4883 113.972 15.7891 113.582 16.3906V27H109V6H113.582V13.793Z" fill="white"/>
<path d="M133.583 25.4004C132.613 26.6491 131.303 27.2734 129.653 27.2734C128.04 27.2734 126.816 26.804 125.982 25.8652C125.157 24.9173 124.745 23.5592 124.745 21.791V12.207H129.327V21.8184C129.327 23.0853 129.939 23.7188 131.163 23.7188C132.214 23.7188 132.962 23.3405 133.406 22.584V12.207H138.015V27H133.719L133.583 25.4004Z" fill="white"/>
<path d="M154.195 19.7266C154.195 22.151 153.697 24.015 152.7 25.3184C151.702 26.6217 150.298 27.2734 148.485 27.2734C146.989 27.2734 145.783 26.6764 144.868 25.4824L144.678 27H140.571V6H145.153V13.3965C146.005 12.4212 147.107 11.9336 148.457 11.9336C150.288 11.9336 151.702 12.5944 152.7 13.916C153.697 15.2376 154.195 17.097 154.195 19.4941V19.7266ZM149.6 19.4395C149.6 18.0176 149.409 17.0059 149.028 16.4043C148.657 15.7936 148.081 15.4883 147.302 15.4883C146.268 15.4883 145.552 15.8848 145.153 16.6777V22.5566C145.543 23.3405 146.268 23.7324 147.329 23.7324C148.408 23.7324 149.092 23.2038 149.382 22.1465C149.527 21.627 149.6 20.7246 149.6 19.4395Z" fill="white"/>

</svg>
