<svg style="display: none;" xmlns="http://www.w3.org/2000/svg">


    <symbol id="logo" viewBox="0 0 162 34" fill="none" xmlns="http://www.w3.org/2000/svg">
        <path d="M8.97452 27C8.8111 26.6992 8.66584 26.2572 8.53873 25.6738C7.69439 26.7402 6.51413 27.2734 4.99795 27.2734C3.60887 27.2734 2.42861 26.8542 1.45717 26.0156C0.485723 25.168 0 24.1061 0 22.8301C0 21.2259 0.59013 20.0137 1.77039 19.1934C2.95065 18.373 4.66657 17.9629 6.91814 17.9629H8.33446V17.1836C8.33446 15.8255 7.74887 15.1465 6.57768 15.1465C5.48821 15.1465 4.94348 15.6842 4.94348 16.7598H0.354078C0.354078 15.3288 0.957827 14.1667 2.16532 13.2734C3.3819 12.3802 4.92986 11.9336 6.8092 11.9336C8.68853 11.9336 10.1729 12.3939 11.2624 13.3145C12.3519 14.235 12.9102 15.4974 12.9375 17.1016V23.6504C12.9556 25.0085 13.1644 26.0475 13.5639 26.7676V27H8.97452ZM6.10104 23.9922C6.67301 23.9922 7.14512 23.8691 7.51735 23.623C7.89867 23.377 8.17103 23.099 8.33446 22.7891V20.4238H6.99985C5.40196 20.4238 4.60302 21.1439 4.60302 22.584C4.60302 23.0033 4.74374 23.3451 5.02519 23.6094C5.30663 23.8646 5.66525 23.9922 6.10104 23.9922Z" fill="white"/>
        <path d="M19.8284 12.207L19.9782 13.9434C21.0223 12.6035 22.425 11.9336 24.1863 11.9336C26.0474 11.9336 27.3049 12.6764 27.9586 14.1621C28.9572 12.6764 30.4008 11.9336 32.2892 11.9336C35.2762 11.9336 36.8105 13.7474 36.8922 17.375V27H32.2892V17.6621C32.2892 16.9056 32.1621 16.3542 31.9079 16.0078C31.6537 15.6615 31.1907 15.4883 30.5188 15.4883C29.6109 15.4883 28.9345 15.8939 28.4897 16.7051L28.5033 16.8965V27H23.9003V17.6895C23.9003 16.9147 23.7777 16.3542 23.5326 16.0078C23.2875 15.6615 22.8199 15.4883 22.1299 15.4883C21.2492 15.4883 20.5774 15.8939 20.1144 16.7051V27H15.525V12.207H19.8284Z" fill="white"/>
        <path d="M47.8142 27C47.6508 26.6992 47.5055 26.2572 47.3784 25.6738C46.534 26.7402 45.3538 27.2734 43.8376 27.2734C42.4485 27.2734 41.2683 26.8542 40.2968 26.0156C39.3254 25.168 38.8397 24.1061 38.8397 22.8301C38.8397 21.2259 39.4298 20.0137 40.61 19.1934C41.7903 18.373 43.5062 17.9629 45.7578 17.9629H47.1741V17.1836C47.1741 15.8255 46.5885 15.1465 45.4173 15.1465C44.3279 15.1465 43.7831 15.6842 43.7831 16.7598H39.1937C39.1937 15.3288 39.7975 14.1667 41.005 13.2734C42.2216 12.3802 43.7695 11.9336 45.6488 11.9336C47.5282 11.9336 49.0126 12.3939 50.1021 13.3145C51.1915 14.235 51.7499 15.4974 51.7771 17.1016V23.6504C51.7953 25.0085 52.0041 26.0475 52.4036 26.7676V27H47.8142ZM44.9407 23.9922C45.5127 23.9922 45.9848 23.8691 46.357 23.623C46.7383 23.377 47.0107 23.099 47.1741 22.7891V20.4238H45.8395C44.2416 20.4238 43.4427 21.1439 43.4427 22.584C43.4427 23.0033 43.5834 23.3451 43.8648 23.6094C44.1463 23.8646 44.5049 23.9922 44.9407 23.9922Z" fill="white"/>
        <path d="M58.5455 12.207L58.6953 13.9434C59.7121 12.6035 61.1148 11.9336 62.9034 11.9336C64.4377 11.9336 65.5816 12.3939 66.3352 13.3145C67.0978 14.235 67.4928 15.6204 67.52 17.4707V27H62.917V17.6621C62.917 16.9147 62.7672 16.3678 62.4676 16.0215C62.168 15.666 61.6232 15.4883 60.8334 15.4883C59.9345 15.4883 59.2672 15.8438 58.8315 16.5547V27H54.2421V12.207H58.5455Z" fill="white"/>
        <path d="M75.4187 8.5293V12.207H77.8427V15.4062H75.4187V22.1738C75.4187 22.7298 75.5185 23.1172 75.7183 23.3359C75.918 23.5547 76.3129 23.6641 76.9031 23.6641C77.357 23.6641 77.7383 23.6367 78.047 23.582V26.877C77.2208 27.1413 76.3583 27.2734 75.4595 27.2734C73.8798 27.2734 72.7131 26.8997 71.9596 26.1523C71.206 25.4049 70.8293 24.2702 70.8293 22.748V15.4062H68.9499V12.207H70.8293V8.5293H75.4187Z" fill="white"/>
        <path d="M86.79 27.2734C84.5294 27.2734 82.7 26.599 81.3018 25.25C79.9036 23.8919 79.2046 22.1283 79.2046 19.959V19.5762C79.2046 18.0632 79.4815 16.7279 80.0353 15.5703C80.5982 14.4128 81.4153 13.5195 82.4866 12.8906C83.5579 12.2526 84.829 11.9336 86.2998 11.9336C88.3697 11.9336 90.004 12.5807 91.2024 13.875C92.4008 15.1602 93 16.9557 93 19.2617V21.0527H83.8757C84.0391 21.8822 84.3977 22.5339 84.9515 23.0078C85.5053 23.4818 86.2226 23.7188 87.1032 23.7188C88.5559 23.7188 89.6907 23.2083 90.5078 22.1875L92.6051 24.6758C92.0331 25.4688 91.2205 26.1022 90.1674 26.5762C89.1233 27.041 87.9975 27.2734 86.79 27.2734ZM86.2725 15.4883C84.9288 15.4883 84.1299 16.3815 83.8757 18.168H88.5059V17.8125C88.5241 17.0742 88.338 16.5046 87.9476 16.1035C87.5572 15.6934 86.9988 15.4883 86.2725 15.4883Z" fill="white"/>
        <path d="M162 0H110.917C105.44 0 101 4.47715 101 10V34H152.083C157.56 34 162 29.5228 162 24V0Z" fill="#FC1919"/>
        <path d="M113.582 13.793C114.561 12.5534 115.812 11.9336 117.335 11.9336C118.957 11.9336 120.181 12.4167 121.006 13.3828C121.831 14.349 122.252 15.7754 122.27 17.6621V27H117.675V17.7715C117.675 16.9876 117.516 16.4134 117.199 16.0488C116.882 15.6751 116.342 15.4883 115.581 15.4883C114.638 15.4883 113.972 15.7891 113.582 16.3906V27H109V6H113.582V13.793Z" fill="white"/>
        <path d="M133.583 25.4004C132.613 26.6491 131.303 27.2734 129.653 27.2734C128.04 27.2734 126.816 26.804 125.982 25.8652C125.157 24.9173 124.745 23.5592 124.745 21.791V12.207H129.327V21.8184C129.327 23.0853 129.939 23.7188 131.163 23.7188C132.214 23.7188 132.962 23.3405 133.406 22.584V12.207H138.015V27H133.719L133.583 25.4004Z" fill="white"/>
        <path d="M154.195 19.7266C154.195 22.151 153.697 24.015 152.7 25.3184C151.702 26.6217 150.298 27.2734 148.485 27.2734C146.989 27.2734 145.783 26.6764 144.868 25.4824L144.678 27H140.571V6H145.153V13.3965C146.005 12.4212 147.107 11.9336 148.457 11.9336C150.288 11.9336 151.702 12.5944 152.7 13.916C153.697 15.2376 154.195 17.097 154.195 19.4941V19.7266ZM149.6 19.4395C149.6 18.0176 149.409 17.0059 149.028 16.4043C148.657 15.7936 148.081 15.4883 147.302 15.4883C146.268 15.4883 145.552 15.8848 145.153 16.6777V22.5566C145.543 23.3405 146.268 23.7324 147.329 23.7324C148.408 23.7324 149.092 23.2038 149.382 22.1465C149.527 21.627 149.6 20.7246 149.6 19.4395Z" fill="white"/>
    </symbol>

    <symbol id="woman" viewBox="0 0 34 50" fill="none" xmlns="http://www.w3.org/2000/svg">
        <path d="M34 44.244V49.1666C34 49.6268 33.6241 49.9999 33.1605 49.9999C32.6969 49.9999 32.321 49.6268 32.321 49.1666V44.244C32.321 40.4112 29.1964 37.3095 25.3349 37.3095C23.5078 37.3095 21.8499 36.3856 20.9003 34.8377C20.6591 34.4447 20.7846 33.932 21.1806 33.6926C21.5763 33.4531 22.093 33.5776 22.3342 33.9709C22.9767 35.0179 24.0985 35.6429 25.3349 35.6429C30.1238 35.6426 34 39.4897 34 44.244ZM28.3273 40.3494C28.581 40.7345 28.4722 41.251 28.0842 41.5028C25.466 43.2028 22.3849 43.5091 19.3247 42.8032L20.9598 48.9539C21.0781 49.3988 20.8106 49.8547 20.3623 49.9722C19.9158 50.0894 19.4551 49.8255 19.3364 49.3791L17.4365 42.2322C17.2712 42.1696 17.1252 42.1108 17.0001 42.0579C16.8749 42.1107 16.7289 42.1696 16.5636 42.2321L14.6637 49.379C14.5643 49.7527 14.2244 49.9999 13.8525 49.9999C13.3007 49.9999 12.9 49.4812 13.0402 48.9538L14.6754 42.8028C10.0396 43.8721 6.14986 42.4577 3.60634 39.4642C2.36323 40.759 1.67903 42.4487 1.67903 44.2438V49.1666C1.67903 49.6268 1.30314 49.9999 0.839514 49.9999C0.375892 49.9999 0 49.6268 0 49.1666V44.244C0 41.6647 1.13807 39.2645 3.14818 37.6113V11.1979C3.14818 5.02343 8.20877 0 14.4291 0H19.6761C25.8964 0 30.9571 5.02343 30.9571 11.1979V33.7499C30.9571 34.2101 30.5812 34.5833 30.1176 34.5833C29.6539 34.5833 29.278 34.2101 29.278 33.7499V11.1979C29.278 5.94239 24.9706 1.66666 19.6761 1.66666H14.4291C9.13465 1.66666 4.8272 5.94239 4.8272 11.1979V36.5301C6.00599 35.951 7.31133 35.6427 8.66494 35.6427C10.6025 35.6427 12.173 34.0931 12.173 32.1696V31.9498C8.39073 30.1547 5.77166 26.3193 5.77166 21.8879V19.4791C5.77166 19.0189 6.14755 18.6458 6.61117 18.6458C7.07479 18.6458 7.45069 19.0189 7.45069 19.4791V21.888C7.45069 27.1148 11.7345 31.3671 17.0002 31.3671C22.2658 31.3671 26.5496 27.1148 26.5496 21.888V16.7509C24.6459 16.066 22.984 14.7708 21.8656 12.9683C20.5615 14.8335 18.7173 16.3702 16.3769 17.3325C15.7375 17.5955 15.0681 17.0172 15.2435 16.3518C15.3564 15.923 15.3866 15.4832 15.3332 15.0438C13.5001 17.0066 11.1907 17.9413 9.10316 17.9413C8.64836 17.9413 8.27456 17.5805 8.26417 17.1268C8.25368 16.6667 8.62097 16.2853 9.08449 16.2749C11.535 16.2198 13.5533 14.8792 14.943 12.8628C15.294 12.3535 16.0632 12.3875 16.3676 12.9249C16.7575 13.6131 16.982 14.3726 17.0289 15.1623C18.7778 14.1665 20.2243 12.7003 21.1877 10.865C21.5176 10.2363 22.4469 10.2783 22.7124 10.9426C23.5921 13.1422 25.4399 14.7298 27.6184 15.3442C27.9387 15.4317 28.1974 15.7212 28.2252 16.0817C28.2305 16.1499 28.2293 21.9325 28.2281 21.9754C28.1707 29.3309 21.0077 34.6782 13.8339 32.5821C13.724 33.9649 13.0597 35.2632 11.9096 36.1801L16.9999 40.0921L19.9938 37.7913C20.3604 37.5095 20.8876 37.5763 21.1716 37.9401C21.4554 38.3041 21.3882 38.8275 21.0216 39.1093L18.6857 40.9044C21.5698 41.8274 24.6325 41.7518 27.1653 40.1083C27.5536 39.856 28.0736 39.9643 28.3273 40.3494ZM15.3139 40.9041L10.298 37.0494C9.38744 37.3475 8.58455 37.3095 8.66483 37.3095C7.30933 37.3095 6.01365 37.6918 4.89982 38.4022C7.53485 41.4916 11.4323 42.1461 15.3139 40.9041Z" fill="#8887C8"/>
    </symbol>

    <symbol id="man" viewBox="0 0 34 50" fill="none" xmlns="http://www.w3.org/2000/svg">
        <path d="M25.3349 35.6429C24.0985 35.6429 22.9768 35.0179 22.3343 33.9709C22.0931 33.5778 21.5765 33.4532 21.1806 33.6927C20.7848 33.9321 20.6592 34.4449 20.9004 34.8379C21.3473 35.566 21.9521 36.1539 22.6563 36.5747L21.7862 40.4941L19.6886 38.0965C20.0694 37.662 19.9775 37.1542 19.6495 36.8711C19.2998 36.5692 18.7695 36.6058 18.4651 36.9531L16.9891 38.6381L13.2709 34.5372C13.5873 33.934 13.7791 33.272 13.8339 32.582C21.0299 34.6847 28.2284 29.2935 28.2284 21.888V15C28.2284 14.5398 27.8525 14.1667 27.3889 14.1667C26.9253 14.1667 26.5494 14.5398 26.5494 15V21.888C26.5494 27.1148 22.2656 31.3672 17 31.3672C11.7344 31.3672 7.45062 27.1149 7.45062 21.888V14.8158C9.49723 14.7005 11.238 13.425 11.8584 11.1133C15.3539 13.3354 19.2721 14.7751 23.384 15.3464C23.8449 15.4102 24.2678 15.0911 24.3318 14.6367C24.396 14.1809 24.076 13.7597 23.6169 13.6958C19.4298 13.1141 15.344 11.5585 11.7134 9.00729C11.1584 8.61708 10.3855 9.01406 10.3889 9.69281C10.389 9.71354 10.3811 11.7803 8.8018 12.7234C7.80311 13.3199 6.79297 13.1273 6.61919 13.1254C6.1901 13.1213 5.82649 13.4409 5.77759 13.8625C5.76835 13.9431 5.7716 13.6686 5.7716 20.5308C5.21081 20.2421 4.82716 19.6675 4.82716 19.0062V8.85416C4.82716 7.76281 5.72155 6.875 6.82099 6.875C7.16424 6.875 7.47297 6.6675 7.60047 6.35114C8.74723 3.50541 11.4832 1.66667 14.5709 1.66667H21.7704C25.9101 1.66667 29.2778 5.00968 29.2778 9.11885V19.0062C29.2778 19.4664 29.6537 19.8396 30.1173 19.8396C30.5809 19.8396 30.9568 19.4664 30.9568 19.0062V9.11885C30.9568 4.09073 26.8359 0 21.7704 0H14.5709C10.9694 0 7.75861 2.04479 6.25086 5.25218C4.49545 5.525 3.14815 7.03635 3.14815 8.85416V19.0062C3.14815 20.6005 4.27183 21.9404 5.7801 22.3001C5.93678 26.5562 8.5085 30.2108 12.1728 31.95V32.1698C12.1728 33.0982 11.8081 33.9705 11.1458 34.6261C9.97123 35.7887 8.49108 35.6429 8.66486 35.6429C3.87589 35.6429 0 39.4898 0 44.244V49.1666C0 49.6268 0.375889 50 0.839506 50C1.30312 50 1.67901 49.6268 1.67901 49.1666V44.244C1.67901 40.4112 4.80355 37.3095 8.66507 37.3096C9.03246 37.3096 9.39921 37.2708 9.76188 37.1938L10.9333 42.4709C11.0816 43.1391 11.9356 43.3538 12.387 42.838L14.041 40.9476L13.019 49.0633C12.9615 49.52 13.2879 49.9364 13.7479 49.9935C14.2087 50.0505 14.6276 49.726 14.6851 49.27L15.8661 39.8907C15.9196 39.9496 16.3862 40.469 16.446 40.5214C16.7925 40.8233 17.3204 40.7927 17.6285 40.4478C17.7945 40.2591 17.3651 40.749 18.132 39.8736L19.3151 49.2699C19.3726 49.7259 19.7913 50.0505 20.2524 49.9934C20.7124 49.9363 21.0388 49.5199 20.9813 49.0632L19.9593 40.9475L21.6132 42.8379C22.0653 43.3547 22.9188 43.1379 23.0669 42.4708L24.2383 37.1935C24.594 37.2685 24.9606 37.3094 25.335 37.3094C29.1961 37.3095 32.321 40.4109 32.321 44.244V49.1666C32.321 49.6268 32.6969 50 33.1605 50C33.6241 50 34 49.6268 34 49.1666V44.244C34 39.4902 30.1245 35.6427 25.3349 35.6429ZM12.2138 40.4941L11.3435 36.5735C11.6636 36.3816 11.9638 36.1532 12.2405 35.892L14.2759 38.137L12.2138 40.4941Z" fill="#8887C8"/>
    </symbol>

    <!--SOCIAL-->
    <symbol id="tg" viewBox="0 0 27 27" xmlns="http://www.w3.org/2000/svg">
        <path fill-rule="evenodd" clip-rule="evenodd" d="M13.5 27C10.8299 27 8.21987 26.2082 5.99981 24.7248C3.77975 23.2414 2.04938 21.133 1.0276 18.6662C0.00581396 16.1994 -0.261483 13.485 0.259417 10.8663C0.780317 8.24754 2.06599 5.84207 3.954 3.95406C5.84201 2.06606 8.24746 0.780305 10.8662 0.259405C13.4849 -0.261496 16.1994 0.00584936 18.6662 1.02763C21.133 2.04941 23.2415 3.77974 24.7249 5.99981C26.2083 8.21987 27 10.83 27 13.5C26.9964 17.0793 25.5729 20.511 23.042 23.042C20.511 25.573 17.0793 26.9964 13.5 27ZM13.5 0.654756C10.9599 0.654947 8.47697 1.40831 6.36507 2.81958C4.25316 4.23085 2.60721 6.23666 1.63522 8.58337C0.66323 10.9301 0.408839 13.5123 0.904354 16.0036C1.39987 18.4948 2.62294 20.7832 4.41896 22.5793C6.21497 24.3755 8.5033 25.5987 10.9945 26.0944C13.4857 26.5901 16.068 26.336 18.4148 25.3642C20.7615 24.3924 22.7675 22.7465 24.1789 20.6347C25.5904 18.5229 26.3438 16.04 26.3442 13.5C26.3419 10.0942 24.988 6.82853 22.5797 4.42026C20.1714 2.01199 16.9058 0.658019 13.5 0.65572V0.654756Z"/>
        <path d="M10.6973 15.8111L10.474 19.0777C10.7935 19.0777 10.9319 18.935 11.0978 18.7636L12.5958 17.2747L15.6997 19.6387C16.269 19.9687 16.6701 19.7949 16.8236 19.0941L18.861 9.16552C19.0416 8.29036 18.5573 7.94755 18.0027 8.16225L6.02674 12.9306C5.20941 13.2605 5.22178 13.7343 5.8878 13.949L8.94956 14.9394L16.0614 10.3115C16.3961 10.081 16.7004 10.2086 16.4501 10.4391L10.6973 15.8111Z" />
    </symbol>

    <symbol id="inst" viewBox="0 0 27 27" xmlns="http://www.w3.org/2000/svg">
        <path fill-rule="evenodd" clip-rule="evenodd" d="M13.5 27C10.8299 27 8.21987 26.2082 5.99981 24.7248C3.77975 23.2414 2.04938 21.133 1.0276 18.6662C0.00581392 16.1994 -0.261483 13.485 0.259417 10.8663C0.780317 8.24754 2.06599 5.84207 3.954 3.95406C5.84201 2.06606 8.24746 0.780305 10.8662 0.259405C13.4849 -0.261496 16.1994 0.00584932 18.6662 1.02763C21.133 2.04941 23.2415 3.77974 24.7249 5.99981C26.2083 8.21987 27 10.83 27 13.5C26.9964 17.0793 25.5729 20.511 23.042 23.042C20.511 25.573 17.0793 26.9964 13.5 27ZM13.5 0.654756C10.9599 0.654947 8.47697 1.40831 6.36507 2.81958C4.25316 4.23085 2.60721 6.23666 1.63522 8.58337C0.66323 10.9301 0.408839 13.5123 0.904354 16.0036C1.39987 18.4948 2.62294 20.7832 4.41896 22.5793C6.21497 24.3755 8.5033 25.5987 10.9945 26.0944C13.4857 26.5901 16.068 26.336 18.4148 25.3642C20.7615 24.3924 22.7675 22.7465 24.1789 20.6347C25.5904 18.5229 26.3438 16.04 26.3442 13.5C26.3419 10.0942 24.988 6.82853 22.5797 4.42026C20.1714 2.01199 16.9058 0.658019 13.5 0.65572V0.654756ZM17.1354 19.4217H9.87426C9.2665 19.4214 8.68358 19.1802 8.25338 18.7509C7.82318 18.3216 7.58078 17.7393 7.57925 17.1315V9.86465C7.58104 9.25706 7.82356 8.67495 8.25373 8.24586C8.68391 7.81677 9.26666 7.57568 9.87426 7.57543H17.1354C17.7429 7.57568 18.3257 7.81677 18.7559 8.24586C19.1861 8.67495 19.4286 9.25706 19.4304 9.86465V17.1325C19.4288 17.7402 19.1863 18.3226 18.7561 18.7519C18.3259 19.1812 17.7431 19.4224 17.1354 19.4226V19.4217ZM15.1971 12.286C15.0044 12.017 14.7503 11.7979 14.456 11.6467C14.1617 11.4955 13.8357 11.4166 13.5048 11.4166C13.1739 11.4166 12.8479 11.4955 12.5536 11.6467C12.2593 11.7979 12.0052 12.017 11.8125 12.286C11.5582 12.6411 11.4201 13.0662 11.4171 13.5029C11.4171 14.0566 11.6371 14.5876 12.0286 14.9791C12.4201 15.3706 12.9511 15.5906 13.5048 15.5906C14.0585 15.5906 14.5895 15.3706 14.981 14.9791C15.3725 14.5876 15.5925 14.0566 15.5925 13.5029C15.5949 13.0641 15.4563 12.6362 15.1971 12.2821V12.286ZM18.061 9.20025V8.9399H17.8007L16.0457 8.94568L16.0554 10.9543L18.061 10.9456V9.20025ZM18.2731 12.286H16.5085C16.6676 12.672 16.7495 13.0854 16.7496 13.5029C16.7496 14.3622 16.4083 15.1863 15.8006 15.7939C15.193 16.4015 14.3689 16.7429 13.5096 16.7429C12.6503 16.7429 11.8262 16.4015 11.2186 15.7939C10.611 15.1863 10.2696 14.3622 10.2696 13.5029C10.2713 13.0865 10.3497 12.6739 10.5011 12.286H8.73647V17.1363C8.73723 17.4376 8.85734 17.7263 9.07065 17.939C9.28395 18.1518 9.57298 18.2713 9.87426 18.2713H17.1354C17.4366 18.2713 17.7255 18.1518 17.9388 17.939C18.1522 17.7263 18.2724 17.4376 18.2731 17.1363V12.286Z"/>
    </symbol>

    <symbol id="fb" viewBox="0 0 27 27" xmlns="http://www.w3.org/2000/svg">
        <path fill-rule="evenodd" clip-rule="evenodd" d="M13.5 27C10.8299 27 8.21987 26.2082 5.99981 24.7248C3.77975 23.2414 2.04938 21.133 1.0276 18.6662C0.00581392 16.1994 -0.261483 13.485 0.259417 10.8663C0.780317 8.24754 2.06599 5.84207 3.954 3.95406C5.84201 2.06606 8.24758 0.780305 10.8663 0.259405C13.4851 -0.261496 16.1994 0.00584932 18.6662 1.02763C21.133 2.04941 23.2415 3.77974 24.7249 5.99981C26.2083 8.21987 27 10.83 27 13.5C26.9964 17.0793 25.5729 20.511 23.042 23.042C20.511 25.573 17.0793 26.9964 13.5 27ZM13.5 0.654756C10.9599 0.654947 8.47697 1.40831 6.36507 2.81958C4.25316 4.23085 2.60721 6.23666 1.63522 8.58337C0.66323 10.9301 0.408839 13.5123 0.904354 16.0036C1.39987 18.4948 2.62294 20.7832 4.41896 22.5793C6.21497 24.3755 8.5033 25.5987 10.9945 26.0944C13.4857 26.5901 16.068 26.336 18.4148 25.3642C20.7615 24.3924 22.7675 22.7465 24.1789 20.6347C25.5904 18.5229 26.3439 16.04 26.3443 13.5C26.342 10.0942 24.988 6.82853 22.5797 4.42026C20.1714 2.01199 16.9058 0.658019 13.5 0.65572V0.654756ZM15.0718 9.45868C14.9691 9.4347 14.8625 9.43291 14.759 9.45341C14.6556 9.4739 14.5577 9.51623 14.4719 9.57756C14.3861 9.63888 14.3144 9.7178 14.2616 9.80905C14.2087 9.90029 14.1759 10.0018 14.1654 10.1067V11.4914H16.1228L15.9878 13.2647H14.1654V19.4255H11.8704V13.2647H10.6457V11.4914H11.8704V10.3005C11.8122 9.66191 11.9501 9.02077 12.2657 8.46258C12.4819 8.16624 12.7693 7.92912 13.1013 7.77307C13.4333 7.61702 13.7993 7.54706 14.1654 7.56964C14.9051 7.53768 15.6455 7.61238 16.3639 7.79143L16.0554 9.60622C15.7346 9.51776 15.4044 9.46822 15.0718 9.45868Z"/>
    </symbol>

    <symbol id="wk" >
        <path fill-rule="evenodd" clip-rule="evenodd" d="M13.5 27C10.8299 27 8.21987 26.2082 5.99981 24.7248C3.77975 23.2414 2.04938 21.133 1.0276 18.6662C0.00581392 16.1994 -0.261483 13.485 0.259417 10.8663C0.780317 8.24754 2.06599 5.84207 3.954 3.95406C5.84201 2.06606 8.24746 0.780305 10.8662 0.259405C13.4849 -0.261496 16.1994 0.00584932 18.6662 1.02763C21.133 2.04941 23.2415 3.77974 24.7249 5.99981C26.2083 8.21987 27 10.83 27 13.5C26.9951 17.0789 25.5712 20.5099 23.0405 23.0406C20.5099 25.5713 17.0789 26.9952 13.5 27ZM13.5 0.654756C10.9599 0.654947 8.47697 1.40831 6.36507 2.81958C4.25316 4.23085 2.60721 6.23666 1.63522 8.58337C0.66323 10.9301 0.408839 13.5123 0.904354 16.0036C1.39987 18.4948 2.62294 20.7832 4.41896 22.5793C6.21497 24.3755 8.5033 25.5987 10.9945 26.0944C13.4857 26.5901 16.068 26.336 18.4148 25.3642C20.7615 24.3924 22.7675 22.7465 24.1789 20.6347C25.5904 18.5229 26.3438 16.04 26.3442 13.5C26.3391 10.0951 24.9843 6.83102 22.5766 4.42336C20.169 2.01569 16.9049 0.660821 13.5 0.65572V0.654756ZM18.8807 12.8472C18.6301 13.1402 18.4105 13.4581 18.225 13.796C18.1856 13.894 18.1746 14.0011 18.1933 14.105C18.2121 14.2089 18.2598 14.3053 18.3311 14.3833C18.5117 14.5929 18.7049 14.7912 18.9096 14.9773H18.9193L18.9289 14.985L18.9386 14.9927L18.9482 15.0072C19.488 15.4688 19.956 16.0083 20.3367 16.6079C20.3464 16.632 20.3657 16.6619 20.385 16.6995C20.4043 16.7371 20.4139 16.7959 20.4331 16.8924C20.4525 16.9732 20.4525 17.0574 20.4331 17.1383C20.3982 17.2248 20.3332 17.2957 20.25 17.3379C20.1158 17.4058 19.9662 17.437 19.8161 17.4285L17.9646 17.4574C17.8287 17.4801 17.6892 17.4675 17.5596 17.4208C17.4286 17.3823 17.3024 17.3289 17.1835 17.2617L17.0389 17.1749C16.8536 17.0373 16.6823 16.8816 16.5279 16.7101C16.335 16.5025 16.1711 16.3154 16.0361 16.1489C15.9041 15.9932 15.7554 15.8525 15.5925 15.7294C15.5375 15.6788 15.471 15.6421 15.3989 15.6223C15.3268 15.6025 15.251 15.6002 15.1778 15.6156L15.12 15.6426C15.0782 15.6736 15.0395 15.7085 15.0043 15.7468C14.9403 15.8101 14.8852 15.8818 14.8404 15.9599C14.7857 16.0801 14.7468 16.2068 14.7246 16.3369C14.6828 16.5212 14.6666 16.7104 14.6764 16.8991C14.6766 16.9645 14.6668 17.0295 14.6474 17.092C14.6361 17.1382 14.62 17.1831 14.5993 17.226L14.5703 17.2626C14.4654 17.3609 14.3283 17.4178 14.1846 17.4227H13.3457C12.9911 17.4403 12.6361 17.3999 12.2946 17.3031C11.961 17.2166 11.6401 17.0869 11.34 16.9174C11.081 16.77 10.8299 16.6091 10.5878 16.4353C10.4072 16.3096 10.2363 16.1703 10.0767 16.0187L9.90321 15.8451C9.855 15.7969 9.78754 15.7236 9.70075 15.6282C9.61397 15.5327 9.44036 15.3109 9.18 14.9686C8.91964 14.6263 8.65924 14.2618 8.40852 13.8751C8.15781 13.4884 7.8686 12.9793 7.52146 12.3467C7.17431 11.7141 6.86564 11.0575 6.57636 10.3757C6.55215 10.3142 6.53917 10.2489 6.53787 10.1829C6.53698 10.1434 6.54354 10.1042 6.55717 10.0671L6.58601 10.0228C6.64102 9.9712 6.70662 9.93222 6.77823 9.90857C6.84984 9.88493 6.92579 9.87717 7.00071 9.88586L8.98707 9.8714C9.04364 9.88 9.09882 9.89622 9.15104 9.91961C9.19316 9.93224 9.23244 9.95287 9.26675 9.98036L9.30536 10.0025C9.38554 10.0601 9.44606 10.1409 9.47887 10.234C9.57825 10.4894 9.691 10.7395 9.81646 10.9832C9.94182 11.2404 10.0382 11.4374 10.1057 11.5743L10.2214 11.7845C10.366 12.0738 10.5011 12.3255 10.6264 12.5376C10.7318 12.7125 10.8511 12.8786 10.9832 13.0343C11.0721 13.1383 11.1723 13.2321 11.2821 13.3139C11.354 13.3713 11.4411 13.4065 11.5328 13.4151C11.5988 13.4148 11.6642 13.4024 11.7257 13.3785C11.7402 13.3684 11.753 13.3564 11.7642 13.3428C11.7739 13.3255 11.8029 13.2705 11.8511 13.1828C11.8992 13.0744 11.9316 12.9598 11.9475 12.8424C11.9668 12.7035 11.9957 12.5078 12.0149 12.2561C12.0441 11.9546 12.0441 11.6511 12.0149 11.3496C12.0088 11.1718 11.9863 10.9949 11.9475 10.8212C11.9287 10.7066 11.8963 10.5946 11.8511 10.4876L11.8028 10.3998C11.7263 10.309 11.6322 10.2347 11.5261 10.1814C11.42 10.128 11.3042 10.0967 11.1857 10.0893C11.1278 10.0787 11.1375 10.0218 11.2243 9.91479C11.3038 9.82631 11.3985 9.75282 11.504 9.69782C12.0635 9.53288 12.6487 9.47369 13.23 9.52329C13.5602 9.52254 13.8897 9.55485 14.2135 9.61972C14.2983 9.63942 14.3796 9.67194 14.4546 9.71615C14.5209 9.75614 14.5719 9.81727 14.5993 9.88972C14.6342 9.96382 14.6601 10.0418 14.6764 10.1221C14.6984 10.2306 14.7081 10.3412 14.7053 10.4519C14.7053 10.5917 14.7053 10.7238 14.6957 10.8501C14.686 10.9765 14.686 11.1462 14.6764 11.3603C14.6667 11.5743 14.6667 11.7749 14.6667 11.9581C14.6667 12.0111 14.6667 12.1134 14.6571 12.2628V12.61C14.6586 12.7089 14.6683 12.8076 14.686 12.905C14.6933 13.0033 14.7195 13.0993 14.7633 13.1876C14.804 13.2579 14.8599 13.3182 14.9271 13.364C14.9657 13.3746 15.0043 13.3833 15.0525 13.3939C15.0868 13.3935 15.1207 13.3862 15.1522 13.3725C15.1836 13.3588 15.2121 13.3388 15.2357 13.3139C15.3346 13.2375 15.428 13.1544 15.5153 13.0651C15.6561 12.917 15.7821 12.7556 15.8914 12.583C16.0457 12.3638 16.2096 12.104 16.3832 11.8038C16.6826 11.2802 16.9437 10.7356 17.1643 10.1742C17.1803 10.1286 17.203 10.0857 17.2318 10.0469C17.254 10.0182 17.2799 9.99257 17.3089 9.97072L17.3378 9.94758L17.3764 9.93022L17.4728 9.90804C17.5201 9.89433 17.5703 9.89433 17.6175 9.90804L19.7004 9.89357C19.8575 9.86783 20.0182 9.87406 20.1729 9.9119C20.2569 9.92861 20.3341 9.96989 20.3946 10.0305L20.4331 10.1048C20.5489 10.4133 20.1824 11.1221 19.3531 12.2329C19.2374 12.3872 19.0735 12.5926 18.8807 12.8481V12.8472Z" />
    </symbol>

    <symbol id="email" viewBox="0 0 20 14" xmlns="http://www.w3.org/2000/svg">
        <path d="M18.2422 0H1.75781C0.789766 0 0 0.724985 0 1.61538V12.3846C0 13.272 0.78625 14 1.75781 14H18.2422C19.2078 14 20 13.2775 20 12.3846V1.61538C20 0.728 19.2138 0 18.2422 0ZM17.9995 1.07692L10.0373 8.39401L2.00621 1.07692H17.9995ZM1.17188 12.1616V1.83325L6.81559 6.9752L1.17188 12.1616ZM2.00051 12.9231L7.64777 7.73338L9.62656 9.53623C9.85563 9.74493 10.2253 9.74425 10.4534 9.53457L12.3828 7.76149L17.9995 12.9231H2.00051ZM18.8281 12.1616L13.2114 7L18.8281 1.83838V12.1616Z"/>
    </symbol>

    <symbol id="close" viewBox="0 0 20 20" xmlns="http://www.w3.org/2000/svg">
        <path fill-rule="evenodd" clip-rule="evenodd" d="M0.292896 0.292893C0.68342 -0.0976311 1.31659 -0.0976311 1.70711 0.292893L19.7071 18.2929C20.0976 18.6834 20.0976 19.3166 19.7071 19.7071C19.3166 20.0976 18.6834 20.0976 18.2929 19.7071L0.292896 1.70711C-0.0976281 1.31658 -0.0976281 0.683417 0.292896 0.292893Z"/>
        <path fill-rule="evenodd" clip-rule="evenodd" d="M19.7071 0.292893C20.0976 0.683418 20.0976 1.31658 19.7071 1.70711L1.70711 19.7071C1.31658 20.0976 0.683419 20.0976 0.292893 19.7071C-0.097631 19.3166 -0.097631 18.6834 0.292893 18.2929L18.2929 0.292893C18.6834 -0.0976311 19.3166 -0.0976311 19.7071 0.292893Z"/>
    </symbol>

</svg>