<svg width="54" height="60" viewBox="0 0 54 60" fill="none" xmlns="http://www.w3.org/2000/svg">
<path d="M45.611 41.0274C43.0988 40.344 40.4153 40.4218 37.8423 40.1401C37.6871 40.1232 37.5304 40.1501 37.39 40.2179L27.0005 45.2541L16.611 40.2188C16.4706 40.1509 16.3138 40.1239 16.1587 40.141C15.5701 40.141 14.958 40.2516 14.3694 40.2952C13.712 40.3421 13.055 40.3983 12.3981 40.4523C11.0468 40.5208 9.70488 40.7137 8.38943 41.0284C5.98211 41.687 3.8583 43.1117 2.34312 45.0842C0.827947 47.0568 0.00490678 49.4685 2.1552e-06 51.9502V59.1774C-0.000246046 59.2854 0.0209459 59.3924 0.0623638 59.4922C0.103782 59.592 0.164612 59.6828 0.241367 59.7592C0.318123 59.8356 0.409297 59.8962 0.509663 59.9375C0.61003 59.9789 0.717616 60.0001 0.826258 60.0001H53.1747C53.3935 59.9999 53.6034 59.9135 53.7581 59.7597C53.9129 59.6059 53.9999 59.3973 54 59.1798V51.9512C53.9955 49.4692 53.1728 47.0571 51.6576 45.0841C50.1425 43.1112 48.0186 41.6862 45.611 41.0274ZM41.1959 42.0648L33.2601 49.9613L28.553 46.3271L37.9003 41.7957C38.4681 41.8534 40.662 42.0212 41.1959 42.0648ZM28.038 50.8304C27.7557 51.0901 27.3852 51.2343 27.0005 51.2343C26.6158 51.2343 26.2453 51.0901 25.9629 50.8304L24.2868 49.3018L27.0005 47.206L29.7146 49.3013L28.038 50.8304ZM20.7404 49.9618L12.8051 42.0648C13.903 41.9752 15.0042 41.9073 16.1002 41.7957L25.4479 46.3271L20.7404 49.9618ZM1.65157 51.9512C1.65532 49.8286 2.35893 47.7658 3.65464 46.0786C4.95035 44.3914 6.76675 43.1728 8.82566 42.6094C9.43165 42.45 10.0484 42.3339 10.6711 42.2621L20.0876 51.6324C20.2297 51.7741 20.419 51.8592 20.6199 51.8717C20.8207 51.8842 21.0192 51.8233 21.178 51.7004L22.964 50.3218L24.4146 51.6441L21.5053 58.3594H10.3372V55.1565C10.3372 54.9389 10.2502 54.7303 10.0954 54.5764C9.94066 54.4226 9.73074 54.3362 9.51185 54.3362C9.29297 54.3362 9.08305 54.4226 8.92827 54.5764C8.77349 54.7303 8.68654 54.9389 8.68654 55.1565V58.3594H1.65157V51.9512ZM23.3026 58.3594L25.7828 52.6369C26.5625 52.9576 27.4384 52.9576 28.2182 52.6369L30.6983 58.3594H23.3026ZM52.3494 58.3594H45.3144V55.1565C45.3144 54.9389 45.2275 54.7303 45.0727 54.5764C44.9179 54.4226 44.708 54.3362 44.4891 54.3362C44.2702 54.3362 44.0603 54.4226 43.9055 54.5764C43.7507 54.7303 43.6638 54.9389 43.6638 55.1565V58.3594H32.4956L29.5863 51.646L31.037 50.3237L32.8229 51.7023C32.9817 51.8252 33.1802 51.8861 33.3811 51.8736C33.5819 51.8611 33.7712 51.7759 33.9133 51.6343L43.3299 42.2626C43.9526 42.3344 44.5693 42.4504 45.1753 42.6099C47.234 43.1733 49.0503 44.3919 50.3459 46.079C51.6415 47.7661 52.3451 49.8287 52.3489 51.9512L52.3494 58.3594Z" fill="#FC1919"/>
<path d="M15.6623 15.2733H17.1168C18.1431 15.2722 19.127 14.8664 19.8527 14.1451C20.5784 13.4238 20.9866 12.4459 20.9877 11.4258C20.988 10.82 21.2301 10.2392 21.6609 9.8107C22.0917 9.38225 22.676 9.14125 23.2854 9.14063H30.716C31.0433 9.14113 31.3666 9.21098 31.6645 9.34552C31.9624 9.48006 32.2281 9.6762 32.4437 9.92084C32.6593 10.1655 32.8199 10.453 32.9149 10.7643C33.0099 11.0755 33.037 11.4033 32.9944 11.7258C32.9065 12.2925 32.6192 12.8099 32.1837 13.1859L29.0168 16.0538C26.9351 17.9422 25.2719 20.2409 24.1331 22.8034C22.9943 25.366 22.4049 28.1361 22.4025 30.9375C22.4029 31.1549 22.49 31.3632 22.6447 31.5168C22.7995 31.6704 23.0092 31.7568 23.2279 31.7569H30.7736C30.9923 31.7568 31.202 31.6704 31.3567 31.5168C31.5114 31.3632 31.5985 31.1549 31.5989 30.9375C31.6003 29.408 31.9222 27.8955 32.5439 26.4965C33.1657 25.0974 34.0739 23.8423 35.2105 22.8113L38.2759 20.0358C39.5326 18.9213 40.5339 17.5517 41.2122 16.0195C41.8905 14.4873 42.23 12.8282 42.2077 11.1544C42.1199 8.17742 40.8726 5.35063 38.7289 3.26982C36.5852 1.189 33.7124 0.0167001 30.716 0L23.2854 0C20.2378 0.00347444 17.3161 1.20842 15.1613 3.35046C13.0064 5.49249 11.7945 8.39667 11.7914 11.4258C11.7925 12.4459 12.2007 13.4238 12.9264 14.1451C13.6521 14.8664 14.636 15.2722 15.6623 15.2733ZM23.2854 1.64063H30.716C33.2818 1.65507 35.7416 2.65892 37.5773 4.44063C39.413 6.22235 40.4811 8.64278 40.5566 11.1919C40.5733 12.631 40.2791 14.0569 39.6937 15.3733C39.1083 16.6897 38.2454 17.8658 37.1634 18.8222L34.0979 21.5977C31.6687 23.8018 30.1911 26.8541 29.9742 30.1163H24.0716C24.1825 27.6838 24.7746 25.297 25.8139 23.0921C26.8533 20.8872 28.3195 18.9074 30.1289 17.2659L33.2957 14.3986C34.0209 13.7604 34.4944 12.8869 34.6318 11.9339C34.7042 11.3803 34.657 10.8176 34.4934 10.2836C34.3298 9.74948 34.0535 9.2562 33.6829 8.83662C33.3124 8.41704 32.8561 8.0808 32.3445 7.85032C31.8329 7.61983 31.2777 7.50041 30.716 7.5H23.2854C22.2386 7.50112 21.235 7.91494 20.4948 8.65066C19.7546 9.38638 19.3382 10.3839 19.3371 11.4244C19.3365 12.0095 19.1024 12.5705 18.6861 12.9842C18.2698 13.3979 17.7054 13.6306 17.1168 13.6313H15.6623C15.0737 13.6306 14.5093 13.3979 14.093 12.9842C13.6768 12.5705 13.4426 12.0095 13.442 11.4244C13.4455 8.83063 14.4837 6.34411 16.3289 4.51005C18.1742 2.676 20.6758 1.6441 23.2854 1.64063Z" fill="#FC1919"/>
<path d="M28.3561 34.6937H25.6444C24.7912 34.704 23.9764 35.048 23.3767 35.6513C22.777 36.2546 22.4407 37.0685 22.4407 37.9166C22.4407 38.7647 22.777 39.5786 23.3767 40.1819C23.9764 40.7852 24.7912 41.1293 25.6444 41.1395H28.3561C29.2093 41.1293 30.0241 40.7852 30.6238 40.1819C31.2235 39.5786 31.5598 38.7647 31.5598 37.9166C31.5598 37.0685 31.2235 36.2546 30.6238 35.6513C30.0241 35.048 29.2093 34.704 28.3561 34.6937ZM28.3561 39.4989H25.6444C25.2269 39.4917 24.829 39.3219 24.5363 39.0259C24.2437 38.73 24.0797 38.3316 24.0797 37.9166C24.0797 37.5016 24.2437 37.1032 24.5363 36.8073C24.829 36.5113 25.2269 36.3415 25.6444 36.3344H28.3561C28.7736 36.3415 29.1715 36.5113 29.4642 36.8073C29.7569 37.1032 29.9209 37.5016 29.9209 37.9166C29.9209 38.3316 29.7569 38.73 29.4642 39.0259C29.1715 39.3219 28.7736 39.4917 28.3561 39.4989Z" fill="#FC1919"/>
</svg>
