<svg width="48" height="60" viewBox="0 0 48 60" fill="none" xmlns="http://www.w3.org/2000/svg">
<path d="M47.3892 12.1484L24.2217 0.13221C23.878 -0.0463404 23.4661 -0.0438346 23.125 0.138475L0.598576 12.1546C0.229132 12.352 0 12.7291 0 13.1395V28.8356C0.0135163 41.7383 7.86709 53.4111 20.0124 58.5803L23.1391 59.9066C23.4314 60.0306 23.7641 60.0312 24.057 59.9078L27.5802 58.4268C39.9508 53.3697 47.9987 41.5841 48 28.5243V13.1395C48 12.7247 47.7651 12.3432 47.3892 12.1484ZM45.6932 28.5243C45.6907 40.6839 38.1956 51.6557 26.6772 56.3612L26.6695 56.365L23.6013 57.6543L20.9354 56.5223C9.62999 51.7108 2.319 40.8461 2.30613 28.8356V13.8042L23.6869 2.39824L45.6932 13.8123V28.5243Z" fill="#FC1919"/>
<path d="M15.1774 28.1077C14.7636 27.6359 14.0356 27.5802 13.551 27.983C13.0663 28.3852 13.009 29.0944 13.4229 29.5655L19.5155 36.5102C19.9223 36.9738 20.6348 37.0371 21.1201 36.6524L35.3095 25.4156C35.8039 25.0247 35.8785 24.3174 35.4762 23.8362C35.0746 23.3557 34.348 23.2824 33.8536 23.674L20.5382 34.2178L15.1774 28.1077Z" fill="#FC1919"/>
</svg>
