<svg width="60" height="60" viewBox="0 0 60 60" fill="none" xmlns="http://www.w3.org/2000/svg">
<path d="M53.2679 35.469L52.9597 35.6353C51.7148 34.1245 49.5579 33.5391 47.9146 34.3719C47.9088 34.3748 47.903 34.3779 47.8972 34.3809L47.1697 34.7726C46.302 34.0379 45.2287 33.5887 44.0964 33.4864C42.964 33.3841 41.8277 33.6336 40.8424 34.2009L36.9245 36.3317H31.7111C30.5823 36.3302 29.4682 36.0749 28.4513 35.5848L27.7342 35.2379C25.6924 34.2444 23.4154 33.8354 21.1555 34.0561C18.8956 34.2768 16.7409 35.1186 14.9299 36.4884C14.9128 36.5014 14.8962 36.5144 14.8804 36.529L13.1489 38.0705C12.4945 38.6516 11.721 39.0828 10.8826 39.3337L9.8992 36.1056C9.85048 35.9458 9.75172 35.8059 9.61748 35.7065C9.48324 35.6071 9.32061 35.5534 9.15356 35.5534H0.779557C0.669222 35.5534 0.560144 35.5769 0.459535 35.6222C0.358925 35.6675 0.269077 35.7336 0.19593 35.8162C0.122784 35.8988 0.0680052 35.996 0.0352168 36.1013C0.00242843 36.2067 -0.00762269 36.3178 0.0057278 36.4273L2.79702 59.3148C2.82006 59.5038 2.91149 59.6778 3.05404 59.8041C3.1966 59.9303 3.38043 60 3.57085 60H16.1311C16.253 60 16.3731 59.9714 16.4819 59.9166C16.5907 59.8618 16.6851 59.7823 16.7576 59.6844C16.8301 59.5865 16.8786 59.4729 16.8993 59.3529C16.92 59.2328 16.9123 59.1096 16.8768 58.9931L15.2267 53.5786L20.3658 50.3305C21.0534 49.95 21.8601 49.8457 22.6219 50.0386C22.638 50.0426 22.6543 50.0462 22.6706 50.0491L33.1242 51.9741C35.9651 52.4824 38.8941 52.0688 41.4831 50.7938C41.5162 50.7775 41.5481 50.7588 41.5785 50.738L59.6593 38.3234C59.8231 38.211 59.9377 38.0402 59.9799 37.846C60.022 37.6519 59.9883 37.4489 59.8859 37.2787C59.228 36.183 58.1727 35.3833 56.9399 35.0462C55.7072 34.7091 54.3918 34.8605 53.2679 35.469ZM48.6274 35.7585C49.5778 35.2826 50.7743 35.6727 51.5385 36.402L44.6821 40.1009L44.2794 40.3131C44.0622 39.6967 43.745 39.1202 43.3403 38.6071L48.6274 35.7585ZM41.5968 35.5655C41.6029 35.562 41.6098 35.5586 41.6153 35.555C42.2294 35.2 42.9274 35.0163 43.6367 35.023C44.3459 35.0297 45.0404 35.2265 45.6477 35.5929L42.1617 37.4698C41.4972 36.9848 40.7388 36.6435 39.9351 36.4677L41.5968 35.5655ZM4.26049 58.4409L1.66005 37.1125H8.57579L15.0785 58.4409H4.26049ZM40.7411 49.4201C38.4648 50.5283 35.8954 50.8853 33.4031 50.4398L22.9753 48.5195C21.8283 48.2363 20.6165 48.4006 19.5862 48.9788C19.5741 48.9854 19.5621 48.9927 19.5502 49.0002L14.7541 52.0323L11.3371 40.8262C12.3907 40.5086 13.3625 39.9652 14.1846 39.2337L15.8917 37.7136C17.4733 36.5245 19.3524 35.7951 21.322 35.6056C23.2916 35.4161 25.2753 35.774 27.0545 36.6397L27.7716 36.9866C29.0002 37.5788 30.3463 37.8873 31.7102 37.8891H38.6644C39.6864 37.8905 40.676 38.2478 41.4631 38.8996C42.2503 39.5514 42.7859 40.4569 42.9779 41.4607L37.9375 41.2327C36.1051 41.1503 34.2691 41.2352 32.4521 41.4862C32.2489 41.5163 32.0658 41.6255 31.9426 41.7899C31.8195 41.9543 31.7662 42.1607 31.7944 42.3642C31.8226 42.5677 31.9299 42.7518 32.0931 42.8766C32.2563 43.0014 32.4622 43.0566 32.666 43.0305C34.3887 42.7923 36.1296 42.712 37.867 42.7904L43.7988 43.0587C43.8106 43.0587 43.8224 43.0594 43.8341 43.0594C44.0409 43.0594 44.2391 42.9773 44.3853 42.8311C44.5315 42.6849 44.6137 42.4866 44.6137 42.2799C44.6137 42.1537 44.6083 42.0287 44.6007 41.9044L45.4141 41.4757L54.0085 36.8405C54.6685 36.4831 55.4281 36.3537 56.1693 36.4725C56.9104 36.5913 57.5915 36.9516 58.1068 37.4974L40.7411 49.4201Z" fill="#FC1919"/>
<path d="M6.73868 55.2159C6.73868 55.7013 6.88262 56.1758 7.1523 56.5794C7.42198 56.983 7.80528 57.2976 8.25374 57.4834C8.7022 57.6691 9.19567 57.7177 9.67175 57.623C10.1478 57.5283 10.5851 57.2946 10.9284 56.9514C11.2716 56.6081 11.5054 56.1708 11.6001 55.6947C11.6948 55.2186 11.6462 54.7252 11.4604 54.2767C11.2746 53.8283 10.9601 53.445 10.5565 53.1753C10.1529 52.9056 9.67836 52.7617 9.19295 52.7617C8.54226 52.7624 7.91842 53.0212 7.45831 53.4813C6.99821 53.9414 6.7394 54.5652 6.73868 55.2159ZM9.19295 54.3207C9.37 54.3207 9.54307 54.3732 9.69028 54.4716C9.83749 54.57 9.95223 54.7098 10.02 54.8734C10.0877 55.0369 10.1055 55.2169 10.0709 55.3906C10.0364 55.5642 9.95113 55.7237 9.82593 55.8489C9.70074 55.9741 9.54124 56.0594 9.36759 56.0939C9.19394 56.1284 9.01395 56.1107 8.85038 56.043C8.6868 55.9752 8.547 55.8605 8.44863 55.7133C8.35027 55.566 8.29777 55.393 8.29777 55.2159C8.29818 54.9787 8.39263 54.7512 8.56043 54.5835C8.72823 54.4157 8.95568 54.3213 9.19295 54.321V54.3207Z" fill="#FC1919"/>
<path d="M35.9259 8.45841V5.88954C35.9186 4.32501 35.2919 2.82705 34.183 1.72334C33.0741 0.619625 31.5733 0 30.0087 0C28.4441 0 26.9433 0.619625 25.8344 1.72334C24.7255 2.82705 24.0988 4.32501 24.0915 5.88954V8.45841C24.0988 10.0229 24.7255 11.5209 25.8344 12.6246C26.9433 13.7283 28.4441 14.3479 30.0087 14.3479C31.5733 14.3479 33.0741 13.7283 34.183 12.6246C35.2919 11.5209 35.9186 10.0229 35.9259 8.45841ZM25.6506 8.45841V5.88954C25.6569 4.73782 26.1188 3.63541 26.9354 2.82324C27.752 2.01106 28.857 1.55516 30.0087 1.55516C31.1604 1.55516 32.2654 2.01106 33.082 2.82324C33.8986 3.63541 34.3605 4.73782 34.3668 5.88954V8.45841C34.3605 9.61013 33.8986 10.7125 33.082 11.5247C32.2654 12.3369 31.1604 12.7928 30.0087 12.7928C28.857 12.7928 27.752 12.3369 26.9354 11.5247C26.1188 10.7125 25.6569 9.61013 25.6506 8.45841Z" fill="#FC1919"/>
<path d="M20.4709 30.4312H39.5466C39.7534 30.4312 39.9516 30.3491 40.0978 30.2029C40.244 30.0567 40.3262 29.8584 40.3262 29.6517V27.8623H53.3848C53.5916 27.8623 53.7899 27.7802 53.9361 27.634C54.0823 27.4878 54.1644 27.2895 54.1644 27.0828V22.023C54.1635 20.5384 53.5976 19.1097 52.5814 18.0272C51.5653 16.9448 50.1752 16.2897 48.6935 16.1951C48.2778 16.1646 48.0641 16.4278 47.8907 16.6392C47.5459 17.0606 47.1093 17.3977 46.6144 17.6248C46.1195 17.8519 45.5793 17.9631 45.035 17.9498C44.4906 17.9365 43.9565 17.7991 43.4732 17.5481C42.99 17.2971 42.5705 16.9391 42.2466 16.5014C42.1721 16.4006 42.0746 16.3193 41.962 16.2643C41.8495 16.2093 41.7254 16.1822 41.6002 16.1853C40.5875 16.208 39.5987 16.4965 38.7326 17.0219C38.1609 16.357 37.4615 15.8137 36.6759 15.424C35.8904 15.0344 35.0346 14.8064 34.1593 14.7535C33.7565 14.7371 33.5528 14.9817 33.3555 15.2212C32.9508 15.7158 32.4386 16.1114 31.8578 16.3779C31.2771 16.6445 30.6432 16.7749 30.0044 16.7593C29.3655 16.7437 28.7387 16.5825 28.1717 16.2879C27.6047 15.9933 27.1124 15.5732 26.7323 15.0595C26.658 14.9586 26.5604 14.8772 26.4479 14.8222C26.3354 14.7672 26.2112 14.7402 26.0859 14.7435C24.3764 14.783 22.7507 15.4922 21.5587 16.7183C21.4603 16.819 21.3668 16.9234 21.2758 17.0293C20.4708 16.5392 19.5585 16.2528 18.6179 16.1949C18.2036 16.1644 17.9883 16.4276 17.8151 16.639C17.4702 17.0603 17.0337 17.3974 16.5388 17.6245C16.0439 17.8517 15.5037 17.9628 14.9594 17.9495C14.415 17.9362 13.8809 17.7988 13.3977 17.5478C12.9145 17.2968 12.4949 16.9388 12.1711 16.5011C12.0965 16.4005 11.9989 16.3193 11.8864 16.2642C11.7739 16.2092 11.6499 16.1821 11.5247 16.185C10.002 16.2238 8.5547 16.8558 7.49136 17.9464C6.42803 19.037 5.83279 20.4998 5.83257 22.023V27.0828C5.83257 27.2895 5.9147 27.4878 6.0609 27.634C6.20709 27.7802 6.40537 27.8623 6.61212 27.8623H19.6913V29.6517C19.6913 29.8584 19.7735 30.0567 19.9197 30.2029C20.0658 30.3491 20.2641 30.4312 20.4709 30.4312ZM41.2673 17.769C41.7479 18.3145 42.3389 18.7518 43.001 19.052C43.6632 19.3521 44.3815 19.5083 45.1086 19.5102C45.8356 19.5121 46.5547 19.3597 47.2185 19.063C47.8822 18.7663 48.4754 18.3322 48.9588 17.7892C49.9726 17.9421 50.8979 18.4534 51.5669 19.2302C52.2359 20.007 52.6043 20.9978 52.6053 22.023V26.3033H40.3262V21.3023C40.327 20.2642 40.08 19.2409 39.6057 18.3175C40.1151 18.0204 40.6812 17.8336 41.2673 17.769ZM25.75 16.3262C26.289 16.9502 26.9557 17.4512 27.705 17.7952C28.4544 18.1392 29.2689 18.3182 30.0934 18.3201C30.918 18.3221 31.7333 18.1469 32.4843 17.8065C33.2353 17.4661 33.9044 16.9683 34.4463 16.3469C35.6433 16.5124 36.74 17.1053 37.5342 18.016C38.3284 18.9267 38.7665 20.094 38.7676 21.3023V28.8721H21.2504V21.3023C21.2582 20.065 21.7211 18.8738 22.551 17.956C23.3809 17.0382 24.5196 16.4581 25.75 16.3262ZM7.39166 26.3033V22.023C7.39825 20.9727 7.78808 19.9609 8.48793 19.1777C9.18779 18.3945 10.1495 17.8938 11.1925 17.7696C11.6731 18.3149 12.2639 18.752 12.926 19.0521C13.5881 19.3521 14.3063 19.5082 15.0332 19.51C15.7601 19.5119 16.4791 19.3595 17.1427 19.0628C17.8063 18.7662 18.3994 18.3321 18.8828 17.7892C19.4196 17.8694 19.936 18.0517 20.4042 18.326C19.9342 19.2477 19.6899 20.2678 19.6913 21.3023V26.3033H7.39166Z" fill="#FC1919"/>
<path d="M50.3126 10.7807V8.53207C50.3126 7.13266 49.7567 5.79056 48.7672 4.80103C47.7777 3.8115 46.4356 3.25558 45.0362 3.25558C43.6367 3.25558 42.2947 3.8115 41.3051 4.80103C40.3156 5.79056 39.7597 7.13266 39.7597 8.53207V10.7807C39.7597 12.1801 40.3156 13.5222 41.3051 14.5117C42.2947 15.5012 43.6367 16.0572 45.0362 16.0572C46.4356 16.0572 47.7777 15.5012 48.7672 14.5117C49.7567 13.5222 50.3126 12.1801 50.3126 10.7807ZM41.3188 10.7807V8.53207C41.3188 7.54615 41.7104 6.60062 42.4076 5.90347C43.1047 5.20633 44.0502 4.81468 45.0362 4.81468C46.0221 4.81468 46.9676 5.20633 47.6647 5.90347C48.3619 6.60062 48.7536 7.54615 48.7536 8.53207V10.7807C48.7536 11.7666 48.3619 12.7121 47.6647 13.4093C46.9676 14.1064 46.0221 14.4981 45.0362 14.4981C44.0502 14.4981 43.1047 14.1064 42.4076 13.4093C41.7104 12.7121 41.3188 11.7666 41.3188 10.7807Z" fill="#FC1919"/>
<path d="M20.2373 10.7807V8.53207C20.2373 7.83915 20.1008 7.15302 19.8356 6.51285C19.5705 5.87267 19.1818 5.291 18.6918 4.80103C18.2019 4.31106 17.6202 3.9224 16.98 3.65723C16.3398 3.39206 15.6537 3.25558 14.9608 3.25558C14.2679 3.25558 13.5817 3.39206 12.9416 3.65723C12.3014 3.9224 11.7197 4.31106 11.2297 4.80103C10.7398 5.291 10.3511 5.87267 10.086 6.51285C9.82078 7.15302 9.6843 7.83915 9.6843 8.53207V10.7807C9.6843 11.4736 9.82078 12.1597 10.086 12.7999C10.3511 13.4401 10.7398 14.0217 11.2297 14.5117C11.7197 15.0017 12.3014 15.3903 12.9416 15.6555C13.5817 15.9207 14.2679 16.0572 14.9608 16.0572C15.6537 16.0572 16.3398 15.9207 16.98 15.6555C17.6202 15.3903 18.2019 15.0017 18.6918 14.5117C19.1818 14.0217 19.5705 13.4401 19.8356 12.7999C20.1008 12.1597 20.2373 11.4736 20.2373 10.7807ZM11.2434 10.7807V8.53207C11.2434 7.54615 11.635 6.60062 12.3322 5.90347C13.0293 5.20633 13.9749 4.81468 14.9608 4.81468C15.9467 4.81468 16.8922 5.20633 17.5894 5.90347C18.2865 6.60062 18.6782 7.54615 18.6782 8.53207V10.7807C18.6782 11.2688 18.582 11.7522 18.3952 12.2033C18.2084 12.6543 17.9346 13.0641 17.5894 13.4093C17.2442 13.7545 16.8344 14.0283 16.3834 14.2151C15.9324 14.4019 15.449 14.4981 14.9608 14.4981C14.4726 14.4981 13.9892 14.4019 13.5382 14.2151C13.0872 14.0283 12.6774 13.7545 12.3322 13.4093C11.987 13.0641 11.7132 12.6543 11.5264 12.2033C11.3395 11.7522 11.2434 11.2688 11.2434 10.7807Z" fill="#FC1919"/>
</svg>
