<svg width="60" height="60" viewBox="0 0 60 60" fill="none" xmlns="http://www.w3.org/2000/svg">
<path d="M43.5819 32.7549H16.4186C13.9905 32.7549 12.022 34.8452 12.022 37.4228C12.022 40.001 13.9905 42.0914 16.4186 42.0914H43.5819C46.01 42.0914 47.9781 40.001 47.9781 37.4228C47.9781 34.8452 46.01 32.7549 43.5819 32.7549ZM43.5819 40.4261H16.4186C14.8564 40.4261 13.5903 39.0817 13.5903 37.4228C13.5903 35.7646 14.8564 34.4202 16.4186 34.4202H43.5819C45.1436 34.4202 46.4097 35.7646 46.4097 37.4228C46.4097 39.0817 45.1436 40.4261 43.5819 40.4261Z" fill="#FC1919"/>
<path d="M19.1637 35.8231H20.6085C21.0419 35.8231 21.3926 36.1961 21.3926 36.6558V38.1904C21.3926 38.6501 21.0419 39.0231 20.6085 39.0231H19.1637C18.7308 39.0231 18.3795 38.6501 18.3795 38.1904V36.6558C18.3795 36.1961 18.7308 35.8231 19.1637 35.8231Z" fill="#FC1919"/>
<path d="M39.3917 35.8231H40.8365C41.2699 35.8231 41.6206 36.1961 41.6206 36.6558V38.1904C41.6206 38.6501 41.2699 39.0231 40.8365 39.0231H39.3917C38.9588 39.0231 38.6075 38.6501 38.6075 38.1904V36.6558C38.6075 36.1961 38.9588 35.8231 39.3917 35.8231Z" fill="#FC1919"/>
<path d="M53.2487 29.2118H52.7458V16.073C54.5791 15.6475 55.8156 13.8239 55.6144 11.8431C55.4128 9.86226 53.8383 8.36066 51.9617 8.36066C50.0855 8.36066 48.5105 9.86226 48.3094 11.8431C48.1077 13.8239 49.3447 15.6475 51.1775 16.073V29.2118H50.9059C49.0736 22.9116 43.5927 18.6122 37.3832 18.6041H22.6168C16.4073 18.6122 10.9264 22.9116 9.09462 29.2118H6.75183C3.28998 29.2286 0.491803 32.2128 0.491803 35.8888C0.491803 39.5647 3.28998 42.5495 6.75183 42.5663H9.62811C11.8683 48.0686 16.9715 51.6334 22.6168 51.6393H37.3832C43.0285 51.6334 48.1317 48.0686 50.3719 42.5663H53.2487C56.7105 42.5495 59.5082 39.5647 59.5082 35.8888C59.5082 32.2128 56.7105 29.2286 53.2487 29.2118ZM49.8563 12.2621C49.8563 11.0272 50.7992 10.0265 51.9622 10.0265C53.1246 10.0265 54.0676 11.0272 54.0676 12.2621C54.0671 13.497 53.1246 14.4977 51.9617 14.4977C50.7997 14.4966 49.8578 13.4965 49.8563 12.2621ZM6.75183 40.901C4.15429 40.8863 2.05604 38.6464 2.05604 35.8888C2.05604 33.1311 4.15429 30.8912 6.75183 30.8771H8.70917C8.5504 31.7829 8.47076 32.7029 8.47076 33.6245V36.619C8.47025 38.0691 8.66782 39.5116 9.05735 40.901H6.75183ZM37.3832 49.974H22.6168C15.6737 49.9659 10.0473 43.9915 10.0391 36.619V33.6245C10.0473 26.252 15.6737 20.2775 22.6168 20.2694H37.3832C44.3263 20.2775 49.9527 26.252 49.9609 33.6245V36.619C49.9527 43.9915 44.3263 49.9659 37.3832 49.974ZM53.2487 40.901H50.9426C51.3322 39.5111 51.5298 38.0691 51.5292 36.619V33.6245C51.5292 32.7029 51.4496 31.7829 51.2908 30.8766H53.2487C55.8457 30.8912 57.944 33.1311 57.944 35.8888C57.944 38.6464 55.8457 40.8863 53.2487 40.901Z" fill="#FC1919"/>
<path fill-rule="evenodd" clip-rule="evenodd" d="M59.856 0.144046C60.048 0.336107 60.048 0.6475 59.856 0.839561L0.839561 59.856C0.6475 60.048 0.336107 60.048 0.144046 59.856C-0.0480153 59.6639 -0.0480153 59.3525 0.144046 59.1604L59.1604 0.144046C59.3525 -0.0480153 59.6639 -0.0480153 59.856 0.144046Z" fill="#FC1919"/>
<path fill-rule="evenodd" clip-rule="evenodd" d="M0.144046 0.144046C0.336107 -0.0480153 0.6475 -0.0480153 0.839561 0.144046L59.856 59.1604C60.048 59.3525 60.048 59.6639 59.856 59.856C59.6639 60.048 59.3525 60.048 59.1604 59.856L0.144046 0.839561C-0.0480153 0.6475 -0.0480153 0.336107 0.144046 0.144046Z" fill="#FC1919"/>
</svg>
