<svg width="60" height="60" viewBox="0 0 60 60" fill="none" xmlns="http://www.w3.org/2000/svg">
<path d="M52.8867 11H38.6407C38.1875 11 37.8204 11.3692 37.8204 11.8249C37.8204 12.2806 38.1875 12.6498 38.6407 12.6498H52.8867C54.834 12.6498 56.3593 14.2198 56.3593 16.2243V19.8813C56.3593 20.337 56.7265 20.7062 57.1796 20.7062C57.6327 20.7062 57.9999 20.337 57.9999 19.8813V16.2243C57.9999 13.2947 55.7539 11 52.8867 11Z" fill="#FC1919"/>
<path d="M2.82031 30.8249C3.27344 30.8249 3.64061 30.4556 3.64061 30V16.2243C3.64061 14.2533 5.24743 12.6498 7.22262 12.6498H34.8123C35.2654 12.6498 35.6326 12.2806 35.6326 11.8249C35.6326 11.3692 35.2654 11 34.8123 11H7.22262C4.3429 11 2 13.3437 2 16.2243V30C2 30.4556 2.36717 30.8249 2.82031 30.8249Z" fill="#FC1919"/>
<path d="M57.1793 22.9061C56.7262 22.9061 56.359 23.2753 56.359 23.7309V43.7758C56.359 45.7803 54.8336 47.3503 52.8863 47.3503H7.22262C5.24743 47.3503 3.64061 45.7468 3.64061 43.7758V33.8496C3.64061 33.3939 3.27344 33.0247 2.82031 33.0247C2.36717 33.0247 2 33.3939 2 33.8496V43.7758C2 46.6564 4.3429 49.0001 7.22262 49.0001H52.8863C55.7536 49.0001 57.9996 46.7053 57.9996 43.7758V23.7309C57.9996 23.2753 57.6324 22.9061 57.1793 22.9061Z" fill="#FC1919"/>
<path d="M21.6326 26.9928V23.5179C21.6326 21.6933 20.1565 20.209 18.3421 20.209H11.0547C9.24029 20.209 7.76418 21.6933 7.76418 23.5179V26.9928C7.76418 28.8173 9.24029 30.3017 11.0547 30.3017H12.828C13.2811 30.3017 13.6483 29.9325 13.6483 29.4768C13.6483 29.0211 13.2811 28.6519 12.828 28.6519H11.0547C10.1449 28.6519 9.40479 27.9076 9.40479 26.9928V23.5179C9.40479 22.603 10.1449 21.8588 11.0547 21.8588H18.3421C19.2519 21.8588 19.992 22.603 19.992 23.5179V26.9928C19.992 27.9076 19.2519 28.6519 18.3421 28.6519H16.6561C16.2029 28.6519 15.8358 29.0211 15.8358 29.4768C15.8358 29.9325 16.2029 30.3017 16.6561 30.3017H18.3421C20.1565 30.3017 21.6326 28.8173 21.6326 26.9928Z" fill="#FC1919"/>
<path d="M10.2251 37.9565C8.8682 37.9565 7.76418 39.0667 7.76418 40.4312C7.76418 41.7957 8.8682 42.9059 10.2251 42.9059H15.1469C16.5038 42.9059 17.6079 41.7957 17.6079 40.4312C17.6079 39.0667 16.5038 37.9565 15.1469 37.9565H10.2251ZM15.9672 40.4312C15.9672 40.8861 15.5993 41.2561 15.1469 41.2561H10.2251C9.77273 41.2561 9.40479 40.8861 9.40479 40.4312C9.40479 39.9763 9.77273 39.6063 10.2251 39.6063H15.1469C15.5993 39.6063 15.9672 39.9763 15.9672 40.4312Z" fill="#FC1919"/>
<path d="M22.2565 42.9059H27.1783C28.5352 42.9059 29.6393 41.7957 29.6393 40.4312C29.6393 39.0667 28.5352 37.9565 27.1783 37.9565H22.2565C20.8996 37.9565 19.7956 39.0667 19.7956 40.4312C19.7956 41.7957 20.8996 42.9059 22.2565 42.9059ZM22.2565 39.6063H27.1783C27.6307 39.6063 27.9986 39.9763 27.9986 40.4312C27.9986 40.8861 27.6307 41.2561 27.1783 41.2561H22.2565C21.8041 41.2561 21.4362 40.8861 21.4362 40.4312C21.4362 39.9763 21.8041 39.6063 22.2565 39.6063Z" fill="#FC1919"/>
<path d="M31.827 40.4312C31.827 41.7957 32.931 42.9059 34.2879 42.9059H39.2097C40.5666 42.9059 41.6707 41.7957 41.6707 40.4312C41.6707 39.0667 40.5666 37.9565 39.2097 37.9565H34.2879C32.931 37.9565 31.827 39.0667 31.827 40.4312ZM40.0301 40.4312C40.0301 40.8861 39.6621 41.2561 39.2097 41.2561H34.2879C33.8355 41.2561 33.4676 40.8861 33.4676 40.4312C33.4676 39.9763 33.8355 39.6063 34.2879 39.6063H39.2097C39.6621 39.6063 40.0301 39.9763 40.0301 40.4312Z" fill="#FC1919"/>
<path d="M43.8574 40.4312C43.8574 41.7957 44.9614 42.9059 46.3183 42.9059H51.2402C52.5971 42.9059 53.7011 41.7957 53.7011 40.4312C53.7011 39.0667 52.5971 37.9565 51.2402 37.9565H46.3183C44.9614 37.9565 43.8574 39.0667 43.8574 40.4312ZM52.0605 40.4312C52.0605 40.8861 51.6926 41.2561 51.2402 41.2561H46.3183C45.866 41.2561 45.498 40.8861 45.498 40.4312C45.498 39.9763 45.866 39.6063 46.3183 39.6063H51.2402C51.6926 39.6063 52.0605 39.9763 52.0605 40.4312Z" fill="#FC1919"/>
<path d="M47.2219 16.4571C46.9419 16.0988 46.4261 16.0368 46.0702 16.3182C45.7139 16.5997 45.6521 17.1181 45.932 17.4763C46.1514 17.7571 46.3625 18.0466 46.5588 18.3362C48.0902 20.5976 48.8666 23.0273 48.8666 25.5579C48.8666 28.1339 48.0627 30.6034 46.4775 32.8976C46.2861 33.1746 46.0809 33.4513 45.8678 33.7202C45.5855 34.0764 45.6437 34.5955 45.998 34.8794C46.3497 35.1619 46.8671 35.1063 47.1508 34.7486C47.3861 34.4516 47.6128 34.1458 47.8246 33.8392C49.5795 31.2994 50.5071 28.4358 50.5071 25.5579C50.5071 22.69 49.6349 19.9478 47.9144 17.4071C47.6971 17.0866 47.464 16.7669 47.2219 16.4571Z" fill="#FC1919"/>
<path d="M44.8178 18.9045C44.5489 18.5378 44.0353 18.4597 43.6708 18.7302C43.3061 19.0005 43.2286 19.517 43.4974 19.8836C43.5848 20.0028 43.6713 20.1254 43.7544 20.248C44.8971 21.9348 45.4766 23.7213 45.4766 25.5578C45.4766 27.429 44.8758 29.2465 43.691 30.9599C43.6085 31.0793 43.5227 31.1987 43.4362 31.3149C43.1646 31.6794 43.2381 32.1964 43.6008 32.4697C43.96 32.7411 44.4759 32.6709 44.7491 32.3041C44.8471 32.1726 44.9444 32.0371 45.038 31.9019C46.4176 29.9067 47.1173 27.7722 47.1173 25.5578C47.1173 23.3838 46.442 21.2847 45.1103 19.3189C45.0157 19.1796 44.9173 19.0402 44.8178 18.9045Z" fill="#FC1919"/>
<path d="M41.2039 30.0551C41.5749 30.3076 42.0878 30.2121 42.3425 29.8315C43.2744 28.4394 43.7274 27.0416 43.7274 25.5581C43.7274 24.1125 43.2963 22.7476 42.4095 21.3855C42.1613 21.0041 41.6529 20.8976 41.2739 21.147C40.8948 21.3967 40.7886 21.9079 41.0368 22.289C41.7433 23.3742 42.0867 24.4436 42.0867 25.5581C42.0867 26.7026 41.7252 27.799 40.9815 28.9101C40.7284 29.288 40.8281 29.8007 41.2039 30.0551Z" fill="#FC1919"/>
<path d="M38.8257 27.6286C39.2235 27.8276 39.7232 27.6646 39.9235 27.2515C40.2938 26.493 40.3366 25.9216 40.3366 25.558C40.3366 25.2204 40.2999 24.6907 39.9836 23.9921C39.7958 23.5774 39.3095 23.3945 38.8971 23.5831C38.4846 23.7719 38.3026 24.261 38.4903 24.6757C38.6724 25.0779 38.6958 25.3586 38.6958 25.558C38.6958 25.7741 38.668 26.0792 38.4506 26.5246C38.2511 26.9337 38.4191 27.4279 38.8257 27.6286Z" fill="#FC1919"/>
<path fill-rule="evenodd" clip-rule="evenodd" d="M59.856 0.144046C60.048 0.336107 60.048 0.6475 59.856 0.839561L0.839561 59.856C0.6475 60.048 0.336107 60.048 0.144046 59.856C-0.0480153 59.6639 -0.0480153 59.3525 0.144046 59.1604L59.1604 0.144046C59.3525 -0.0480153 59.6639 -0.0480153 59.856 0.144046Z" fill="#FC1919"/>
<path fill-rule="evenodd" clip-rule="evenodd" d="M0.144046 0.144046C0.336107 -0.0480153 0.6475 -0.0480153 0.839561 0.144046L59.856 59.1604C60.048 59.3525 60.048 59.6639 59.856 59.856C59.6639 60.048 59.3525 60.048 59.1604 59.856L0.144046 0.839561C-0.0480153 0.6475 -0.0480153 0.336107 0.144046 0.144046Z" fill="#FC1919"/>
</svg>
