<svg width="60" height="60" viewBox="0 0 60 60" fill="none" xmlns="http://www.w3.org/2000/svg">
<path d="M43.5855 20.25H30.0003C29.4793 20.25 29.0569 20.6697 29.0569 21.1875C29.0569 21.7053 29.4793 22.125 30.0003 22.125H43.5855C44.1065 22.125 44.5289 21.7053 44.5289 21.1875C44.5289 20.6697 44.1065 20.25 43.5855 20.25Z" fill="#FC1919"/>
<path d="M40.2842 25.0247C40.1087 24.8503 39.8653 24.75 39.6172 24.75C39.3691 24.75 39.1257 24.8503 38.9503 25.0247C38.7748 25.1991 38.6738 25.4409 38.6738 25.6875C38.6738 25.9341 38.7748 26.1759 38.9503 26.3503C39.1257 26.5247 39.3691 26.625 39.6172 26.625C39.8653 26.625 40.1087 26.5247 40.2842 26.3503C40.4597 26.1759 40.5606 25.9341 40.5606 25.6875C40.5606 25.4409 40.4597 25.1991 40.2842 25.0247Z" fill="#FC1919"/>
<path d="M30.6659 10.3059C30.4904 10.1316 30.247 10.0312 29.9989 10.0312C29.7508 10.0312 29.5074 10.1316 29.3319 10.3059C29.1564 10.4803 29.0555 10.7222 29.0555 10.9687C29.0555 11.2153 29.1564 11.4572 29.3319 11.6316C29.5074 11.8059 29.7508 11.9062 29.9989 11.9062C30.247 11.9062 30.4904 11.8059 30.6659 11.6316C30.8414 11.4572 30.9423 11.2153 30.9423 10.9687C30.9423 10.7222 30.8414 10.4803 30.6659 10.3059Z" fill="#FC1919"/>
<path d="M35.6491 24.75H30.0003C29.4793 24.75 29.0569 25.1697 29.0569 25.6875C29.0569 26.2053 29.4793 26.625 30.0003 26.625H35.6491C36.1702 26.625 36.5925 26.2053 36.5925 25.6875C36.5925 25.1697 36.1702 24.75 35.6491 24.75Z" fill="#FC1919"/>
<path d="M43.5855 30.375H30.0003C29.4793 30.375 29.0569 30.7947 29.0569 31.3125C29.0569 31.8303 29.4793 32.25 30.0003 32.25H43.5855C44.1065 32.25 44.5289 31.8303 44.5289 31.3125C44.5289 30.7947 44.1065 30.375 43.5855 30.375Z" fill="#FC1919"/>
<path d="M40.2842 35.1497C40.1087 34.9753 39.8653 34.875 39.6172 34.875C39.3691 34.875 39.1257 34.9753 38.9503 35.1497C38.7748 35.3241 38.6738 35.5659 38.6738 35.8125C38.6738 36.0591 38.7748 36.3009 38.9503 36.4753C39.1257 36.6497 39.3691 36.75 39.6172 36.75C39.8653 36.75 40.1087 36.6497 40.2842 36.4753C40.4597 36.3009 40.5606 36.0591 40.5606 35.8125C40.5606 35.5659 40.4597 35.3241 40.2842 35.1497Z" fill="#FC1919"/>
<path d="M35.6491 34.875H30.0003C29.4793 34.875 29.0569 35.2947 29.0569 35.8125C29.0569 36.3303 29.4793 36.75 30.0003 36.75H35.6491C36.1702 36.75 36.5925 36.3303 36.5925 35.8125C36.5925 35.2947 36.1702 34.875 35.6491 34.875Z" fill="#FC1919"/>
<path d="M43.5855 40.5H30.0003C29.4793 40.5 29.0569 40.9197 29.0569 41.4375C29.0569 41.9553 29.4793 42.375 30.0003 42.375H43.5855C44.1065 42.375 44.5289 41.9553 44.5289 41.4375C44.5289 40.9197 44.1065 40.5 43.5855 40.5Z" fill="#FC1919"/>
<path d="M40.2842 45.2747C40.1087 45.1003 39.8653 45 39.6172 45C39.3691 45 39.1257 45.1003 38.9503 45.2747C38.7748 45.4491 38.6738 45.6909 38.6738 45.9375C38.6738 46.1841 38.7748 46.4259 38.9503 46.6003C39.1257 46.7747 39.3691 46.875 39.6172 46.875C39.8653 46.875 40.1087 46.7747 40.2842 46.6003C40.4597 46.4259 40.5606 46.1841 40.5606 45.9375C40.5606 45.6909 40.4597 45.4491 40.2842 45.2747Z" fill="#FC1919"/>
<path d="M35.6491 45H30.0003C29.4793 45 29.0569 45.4197 29.0569 45.9375C29.0569 46.4553 29.4793 46.875 30.0003 46.875H35.6491C36.1702 46.875 36.5925 46.4553 36.5925 45.9375C36.5925 45.4197 36.1702 45 35.6491 45Z" fill="#FC1919"/>
<path d="M45.4003 9.65634H38.1947C37.1531 8.67 35.7451 8.0625 34.1961 8.0625H33.3697C32.7379 6.81956 31.4399 6 30 6C28.56 6 27.2621 6.81956 26.6302 8.0625H25.8018C24.2529 8.0625 22.8449 8.67 21.8033 9.65634H14.5998C12.0635 9.65634 10 11.7069 10 14.2274V49.429C10 51.9494 12.0635 54 14.5998 54H45.4002C47.9365 54 50 51.9494 50 49.429V14.2274C50.0001 11.7069 47.9366 9.65634 45.4003 9.65634ZM25.8019 9.93749H27.2723C27.6966 9.93749 28.0687 9.65596 28.1816 9.24956C28.4066 8.44021 29.1544 7.875 30 7.875C30.8457 7.875 31.5934 8.44021 31.8184 9.24956C31.9313 9.65596 32.3034 9.93749 32.7277 9.93749H34.1961C36.2437 9.93749 37.9292 11.5078 38.0974 13.5001H21.9006C22.0688 11.5078 23.7544 9.93749 25.8019 9.93749ZM48.1133 49.429C48.1133 50.9156 46.8962 52.1251 45.4003 52.1251H14.5998C13.1039 52.1251 11.8868 50.9156 11.8868 49.429V14.2274C11.8868 12.7408 13.1039 11.5313 14.5998 11.5313H20.4816C20.1726 12.2356 20 13.012 20 13.8282V14.4376C20 14.9554 20.4224 15.3751 20.9434 15.3751H39.0547C39.5757 15.3751 39.9981 14.9554 39.9981 14.4376V13.8282C39.9981 13.0121 39.8255 12.2356 39.5165 11.5313H45.4003C46.8962 11.5313 48.1133 12.7408 48.1133 14.2274V49.429Z" fill="#FC1919"/>
<path d="M24.0005 20.0246C23.6321 19.6585 23.0347 19.6585 22.6664 20.0245L18.6322 24.0335L17.3895 22.7985C17.0211 22.4325 16.4237 22.4325 16.0552 22.7985C15.6868 23.1645 15.6868 23.7582 16.0552 24.1244L17.9651 26.0223C18.1494 26.2054 18.3908 26.2969 18.6322 26.2969C18.8736 26.2969 19.1151 26.2054 19.2993 26.0223L24.0005 21.3505C24.3689 20.9844 24.3689 20.3908 24.0005 20.0246Z" fill="#FC1919"/>
<path d="M21.6983 40.5H17.1699C16.6489 40.5 16.2265 40.9197 16.2265 41.4375V45.9375C16.2265 46.4553 16.6489 46.875 17.1699 46.875H21.6983C22.2193 46.875 22.6417 46.4553 22.6417 45.9375V41.4375C22.6417 40.9197 22.2193 40.5 21.6983 40.5ZM20.7549 45H18.1133V42.375H20.7549V45Z" fill="#FC1919"/>
<path d="M21.6983 30.375H17.1699C16.6489 30.375 16.2265 30.7947 16.2265 31.3125V35.8125C16.2265 36.3303 16.6489 36.75 17.1699 36.75H21.6983C22.2193 36.75 22.6417 36.3303 22.6417 35.8125V31.3125C22.6417 30.7947 22.2193 30.375 21.6983 30.375ZM20.7549 34.875H18.1133V32.25H20.7549V34.875Z" fill="#FC1919"/>
<path fill-rule="evenodd" clip-rule="evenodd" d="M59.856 0.144046C60.048 0.336107 60.048 0.6475 59.856 0.839561L0.839561 59.856C0.6475 60.048 0.336107 60.048 0.144046 59.856C-0.0480153 59.6639 -0.0480153 59.3525 0.144046 59.1604L59.1604 0.144046C59.3525 -0.0480153 59.6639 -0.0480153 59.856 0.144046Z" fill="#FC1919"/>
<path fill-rule="evenodd" clip-rule="evenodd" d="M0.144046 0.144046C0.336107 -0.0480153 0.6475 -0.0480153 0.839561 0.144046L59.856 59.1604C60.048 59.3525 60.048 59.6639 59.856 59.856C59.6639 60.048 59.3525 60.048 59.1604 59.856L0.144046 0.839561C-0.0480153 0.6475 -0.0480153 0.336107 0.144046 0.144046Z" fill="#FC1919"/>
</svg>
